<svg width="27" height="28" viewBox="0 0 27 28" fill="none" xmlns="http://www.w3.org/2000/svg">
<path d="M16.6564 16.2631V6.13884C15.5741 4.52662 14.7849 2.67765 14.2437 0.569378C14.0521 -0.197267 12.9698 -0.185993 12.7668 0.580653C12.1918 2.81294 11.3463 4.74083 10.1625 6.42069L16.6564 16.2631Z" fill="url(#paint0_linear_37_23374)"/>
<path d="M19.4412 9.25051V18.0782C21.1661 16.6126 23.3082 15.395 25.9464 14.3803C26.6003 14.1322 26.6003 13.2078 25.9464 12.9485C23.3082 11.9338 21.1661 10.7274 19.4412 9.25051Z" fill="url(#paint1_linear_37_23374)"/>
<path d="M10.1512 6.42069C11.8085 8.93483 16.6564 8.88974 16.6564 6.13883V16.2631L10.1512 6.42069Z" fill="url(#paint2_linear_37_23374)"/>
<path opacity="0.32" d="M12.1805 9.476L16.6564 16.2631V8.7319C15.9574 9.96079 13.8604 10.1975 12.1805 9.476Z" fill="url(#paint3_linear_37_23374)"/>
<path d="M10.3429 11.0882V21.2124C11.4252 22.8247 12.2144 24.6736 12.7556 26.7819C12.9472 27.5485 14.0296 27.5373 14.2325 26.7706C14.8075 24.5383 15.653 22.6104 16.8368 20.9306L10.3429 11.0882Z" fill="url(#paint4_linear_37_23374)"/>
<path d="M16.8481 20.9306C15.1908 18.4164 10.3429 18.4615 10.3429 21.2124V11.0882L16.8481 20.9306Z" fill="url(#paint5_linear_37_23374)"/>
<path d="M16.8481 20.9306C15.1908 18.4164 10.3429 18.4615 10.3429 21.2124V11.0882L16.8481 20.9306Z" fill="url(#paint6_linear_37_23374)"/>
<path opacity="0.32" d="M14.5933 17.5258L10.3429 11.0882V17.8978C11.2223 16.9846 13.0825 16.8606 14.5933 17.5258Z" fill="url(#paint7_linear_37_23374)"/>
<path d="M19.9372 17.6723C20.0274 17.6047 20.1176 17.5371 20.2078 17.4581C20.2529 17.4243 20.298 17.3905 20.3431 17.3567C20.4333 17.289 20.5235 17.2214 20.6249 17.1537C20.67 17.1199 20.7151 17.0974 20.7602 17.0635C20.8955 16.9733 21.0195 16.8832 21.1548 16.793C21.1661 16.793 21.1661 16.7817 21.1774 16.7817C21.3239 16.6915 21.4592 16.6013 21.6058 16.4998C21.6509 16.4773 21.696 16.4435 21.7411 16.4209C21.8425 16.3533 21.944 16.2969 22.0567 16.2292C22.1131 16.1954 22.1695 16.1616 22.2146 16.1391C22.316 16.0827 22.4288 16.015 22.5303 15.9587C22.5754 15.9361 22.6317 15.9023 22.6768 15.8797C22.8234 15.8008 22.9587 15.7219 23.1052 15.6543C23.1165 15.643 23.1391 15.643 23.1503 15.6317C23.3082 15.5528 23.4773 15.4626 23.6464 15.3837C23.6915 15.3611 23.7479 15.3386 23.8042 15.316C23.9283 15.2597 24.041 15.2033 24.165 15.1469C24.2214 15.1244 24.289 15.0906 24.3454 15.068C24.4694 15.0116 24.5822 14.9553 24.7062 14.9102C24.7626 14.8876 24.8189 14.8651 24.8753 14.8312C25.0331 14.7636 25.191 14.696 25.3488 14.6396C25.3714 14.6283 25.3939 14.617 25.4165 14.6058C25.5856 14.5381 25.7434 14.4705 25.9125 14.4028C26.1155 14.3239 26.262 14.1773 26.3409 14.0082C23.8719 14.3465 19.4186 14.2563 19.4186 9.27306V18.1008C19.5426 17.9993 19.6666 17.8978 19.7906 17.7964C19.8583 17.74 19.9034 17.7062 19.9372 17.6723Z" fill="url(#paint8_linear_37_23374)"/>
<path opacity="0.32" d="M23.8268 15.2935C23.9283 15.2484 24.0298 15.192 24.1312 15.1469C22.4063 15.1469 20.4333 14.7185 19.4412 13.0161V18.0782C19.5652 17.9767 19.6892 17.8753 19.8132 17.7738C19.8583 17.74 19.8921 17.7062 19.9372 17.6836C20.0274 17.616 20.1176 17.5483 20.2078 17.4694C20.2529 17.4356 20.298 17.4018 20.3431 17.3679C20.4333 17.3003 20.5235 17.2327 20.625 17.165C20.6701 17.1312 20.7151 17.1086 20.7602 17.0748C20.8955 16.9846 21.0195 16.8944 21.1548 16.8042C21.1661 16.8042 21.1661 16.793 21.1774 16.793C21.324 16.7028 21.4592 16.6126 21.6058 16.5111C21.6509 16.4886 21.696 16.4547 21.7411 16.4322C21.8426 16.3645 21.944 16.3082 22.0568 16.2405C22.1131 16.2067 22.1695 16.1729 22.2146 16.1503C22.3161 16.094 22.4288 16.0263 22.5303 15.9699C22.5754 15.9474 22.6318 15.9136 22.6769 15.891C22.8234 15.8121 22.9587 15.7332 23.1053 15.6655C23.1166 15.6543 23.1391 15.6543 23.1504 15.643C23.3082 15.5641 23.4773 15.4739 23.6464 15.395C23.7254 15.3386 23.7705 15.316 23.8268 15.2935Z" fill="url(#paint9_linear_37_23374)"/>
<path d="M7.55814 18.0782V9.25051C5.83319 10.7162 3.69109 11.9338 1.05293 12.9485C0.399024 13.1965 0.399024 14.121 1.05293 14.3803C3.69109 15.395 5.83319 16.6126 7.55814 18.0782Z" fill="url(#paint10_linear_37_23374)"/>
<path d="M7.1748 9.56619C7.1297 9.60002 7.09588 9.63384 7.05078 9.65639C6.96059 9.72403 6.87039 9.79168 6.7802 9.8706C6.7351 9.90442 6.69001 9.93824 6.64491 9.97206C6.55472 10.0397 6.45325 10.1074 6.36305 10.175C6.31796 10.2088 6.27286 10.2314 6.22776 10.2652C6.09247 10.3554 5.96846 10.4456 5.83317 10.5358C5.82189 10.5358 5.82189 10.547 5.81062 10.547C5.66405 10.6372 5.52876 10.7274 5.3822 10.8289C5.3371 10.8515 5.29201 10.8853 5.24691 10.9078C5.14544 10.9755 5.0327 11.0318 4.93123 11.0995C4.87486 11.1333 4.82976 11.1671 4.77339 11.1897C4.67193 11.246 4.55918 11.3137 4.45771 11.3701C4.41262 11.3926 4.35625 11.4264 4.31115 11.449C4.16459 11.5279 4.0293 11.6068 3.87146 11.6745C3.86018 11.6857 3.83763 11.6857 3.82636 11.697C3.66852 11.7759 3.49941 11.8661 3.33029 11.9451C3.2852 11.9676 3.22883 11.9901 3.18373 12.0127C3.05971 12.0691 2.94697 12.1254 2.82296 12.1818C2.76658 12.2044 2.69894 12.2382 2.64257 12.2607C2.51855 12.3171 2.40581 12.3735 2.28179 12.4186C2.22542 12.4411 2.16905 12.4637 2.11268 12.4975C1.95484 12.5651 1.797 12.6328 1.63916 12.6891C1.61662 12.7004 1.59407 12.7117 1.57152 12.723C1.4024 12.7906 1.24457 12.8583 1.07545 12.9259C0.872518 13.0048 0.725953 13.1514 0.647034 13.3205C3.11608 12.9823 7.56939 13.0725 7.56939 18.0557V9.22797C7.4341 9.36326 7.31009 9.46472 7.1748 9.56619Z" fill="url(#paint11_linear_37_23374)"/>
<path opacity="0.32" d="M7.1748 9.56619C7.1297 9.60002 7.09588 9.63384 7.05078 9.65639C6.96059 9.72403 6.87039 9.79168 6.7802 9.8706C6.7351 9.90442 6.69001 9.93824 6.64491 9.97206C6.55472 10.0397 6.45325 10.1074 6.36305 10.175C6.31796 10.2088 6.27286 10.2314 6.22776 10.2652C6.09247 10.3554 5.96846 10.4456 5.83317 10.5358C5.82189 10.5358 5.82189 10.547 5.81062 10.547C5.66405 10.6372 5.52876 10.7274 5.3822 10.8289C5.3371 10.8515 5.29201 10.8853 5.24691 10.9078C5.14544 10.9755 5.0327 11.0318 4.93123 11.0995C4.87486 11.1333 4.82976 11.1671 4.77339 11.1897C4.67193 11.246 4.55918 11.3137 4.45771 11.3701C4.41262 11.3926 4.35625 11.4264 4.31115 11.449C4.16459 11.5279 4.0293 11.6068 3.87146 11.6745C3.86018 11.6857 3.83763 11.6857 3.82636 11.697C3.66852 11.7759 3.49941 11.8661 3.33029 11.9451C3.2852 11.9676 3.22883 11.9901 3.18373 12.0127C3.05971 12.0691 2.94697 12.1254 2.82296 12.1818C2.76658 12.2044 2.69894 12.2382 2.64257 12.2607C2.51855 12.3171 2.40581 12.3735 2.28179 12.4186C2.22542 12.4411 2.16905 12.4637 2.11268 12.4975C1.95484 12.5651 1.797 12.6328 1.63916 12.6891C1.61662 12.7004 1.59407 12.7117 1.57152 12.723C1.4024 12.7906 1.24457 12.8583 1.07545 12.9259C0.872518 13.0048 0.725953 13.1514 0.647034 13.3205C3.11608 12.9823 7.56939 13.0725 7.56939 18.0557V9.22797C7.4341 9.36326 7.31009 9.46472 7.1748 9.56619Z" fill="url(#paint12_linear_37_23374)"/>
<path d="M7.55813 14.3465V9.2618C7.43411 9.36326 7.3101 9.46473 7.18608 9.5662C7.14098 9.60002 7.10716 9.63384 7.06206 9.65639C6.97187 9.72404 6.88168 9.79168 6.79148 9.8706C6.74639 9.90442 6.70129 9.93825 6.65619 9.97207C6.566 10.0397 6.46453 10.1074 6.37434 10.175C6.32924 10.2088 6.28414 10.2314 6.23905 10.2652C6.10376 10.3554 5.97974 10.4456 5.84445 10.5358C5.83318 10.5358 5.83317 10.5471 5.8219 10.5471C5.67534 10.6372 5.54005 10.7274 5.39348 10.8289C5.34839 10.8515 5.30329 10.8853 5.25819 10.9078C5.15672 10.9755 5.04398 11.0318 4.94251 11.0995C4.88614 11.1333 4.84104 11.1671 4.78467 11.1897C4.68321 11.2461 4.57046 11.3137 4.469 11.3701C4.4239 11.3926 4.36753 11.4264 4.32243 11.449C4.17587 11.5279 4.04058 11.6068 3.88274 11.6745C3.87146 11.6857 3.84892 11.6857 3.83764 11.697C3.74745 11.7421 3.64598 11.7872 3.55579 11.8436C5.15672 12.0014 6.79148 12.6215 7.55813 14.3465Z" fill="url(#paint13_linear_37_23374)"/>
<defs>
<linearGradient id="paint0_linear_37_23374" x1="13.4033" y1="8.85814" x2="13.4033" y2="-0.103274" gradientUnits="userSpaceOnUse">
<stop offset="0.000294" stop-color="#2A0056"/>
<stop offset="1" stop-color="#8A0BFF"/>
</linearGradient>
<linearGradient id="paint1_linear_37_23374" x1="21.585" y1="14.9499" x2="24.0828" y2="8.65744" gradientUnits="userSpaceOnUse">
<stop offset="0.000294" stop-color="#2A0056"/>
<stop offset="1" stop-color="#8A0BFF"/>
</linearGradient>
<linearGradient id="paint2_linear_37_23374" x1="10.1517" y1="11.2004" x2="16.6548" y2="11.2004" gradientUnits="userSpaceOnUse">
<stop stop-color="#DF38FF"/>
<stop offset="1" stop-color="#FF39FF"/>
</linearGradient>
<linearGradient id="paint3_linear_37_23374" x1="12.1754" y1="12.4968" x2="16.6548" y2="12.4968" gradientUnits="userSpaceOnUse">
<stop stop-color="#8A0BFF"/>
<stop offset="0.9994" stop-color="#2A0056" stop-opacity="0"/>
</linearGradient>
<linearGradient id="paint4_linear_37_23374" x1="13.5949" y1="18.7895" x2="13.5949" y2="27.7509" gradientUnits="userSpaceOnUse">
<stop offset="0.000294" stop-color="#2A0056"/>
<stop offset="1" stop-color="#8A0BFF"/>
</linearGradient>
<linearGradient id="paint5_linear_37_23374" x1="16.8465" y1="16.151" x2="10.3433" y2="16.151" gradientUnits="userSpaceOnUse">
<stop stop-color="#DF38FF"/>
<stop offset="1" stop-color="#FF39FF"/>
</linearGradient>
<linearGradient id="paint6_linear_37_23374" x1="16.8465" y1="16.151" x2="10.3433" y2="16.151" gradientUnits="userSpaceOnUse">
<stop stop-color="#DF38FF"/>
<stop offset="1" stop-color="#FF39FF"/>
</linearGradient>
<linearGradient id="paint7_linear_37_23374" x1="10.3433" y1="14.4939" x2="14.5974" y2="14.4939" gradientUnits="userSpaceOnUse">
<stop stop-color="#8A0BFF"/>
<stop offset="0.9994" stop-color="#2A0056" stop-opacity="0"/>
</linearGradient>
<linearGradient id="paint8_linear_37_23374" x1="19.4438" y1="13.6656" x2="26.3685" y2="13.6656" gradientUnits="userSpaceOnUse">
<stop stop-color="#DF38FF"/>
<stop offset="1" stop-color="#FF39FF"/>
</linearGradient>
<linearGradient id="paint9_linear_37_23374" x1="19.4438" y1="15.5462" x2="24.1292" y2="15.5462" gradientUnits="userSpaceOnUse">
<stop stop-color="#8A0BFF"/>
<stop offset="0.9994" stop-color="#2A0056" stop-opacity="0"/>
</linearGradient>
<linearGradient id="paint10_linear_37_23374" x1="2.79125" y1="17.9301" x2="5.75881" y2="12.8625" gradientUnits="userSpaceOnUse">
<stop stop-color="#8A0BFF"/>
<stop offset="0.9997" stop-color="#2A0056"/>
</linearGradient>
<linearGradient id="paint11_linear_37_23374" x1="0.63072" y1="13.6656" x2="7.55544" y2="13.6656" gradientUnits="userSpaceOnUse">
<stop stop-color="#DF38FF"/>
<stop offset="1" stop-color="#FF39FF"/>
</linearGradient>
<linearGradient id="paint12_linear_37_23374" x1="0.63072" y1="13.6656" x2="7.55544" y2="13.6656" gradientUnits="userSpaceOnUse">
<stop stop-color="#8A0BFF"/>
<stop offset="0.9994" stop-color="#2A0056" stop-opacity="0"/>
</linearGradient>
<linearGradient id="paint13_linear_37_23374" x1="3.54132" y1="11.7979" x2="7.55545" y2="11.7979" gradientUnits="userSpaceOnUse">
<stop stop-color="#DF38FF"/>
<stop offset="1" stop-color="#FF39FF"/>
</linearGradient>
</defs>
</svg>
