<svg xmlns="http://www.w3.org/2000/svg" width="97" height="97" viewBox="0 0 97 97" fill="none">
  <mask id="mask0_37_22950" style="mask-type:luminance" maskUnits="userSpaceOnUse" x="0" y="0" width="97" height="97">
    <path d="M0.571411 0.502686H96.5714V96.5027H0.571411V0.502686Z" fill="white"/>
  </mask>
  <g mask="url(#mask0_37_22950)">
    <path d="M64.2216 3.65498C89.0381 12.315 102.079 39.3365 93.4191 64.1529C84.7591 88.9694 57.7376 102.011 32.9212 93.3505C8.10471 84.6904 -4.93639 57.669 3.72365 32.8525C12.3837 8.03604 39.4051 -5.00506 64.2216 3.65498Z" fill="url(#paint0_linear_37_22950)" fill-opacity="0.4"/>
    <path d="M64.2216 3.65498C89.0381 12.315 102.079 39.3365 93.4191 64.1529C84.7591 88.9694 57.7376 102.011 32.9212 93.3505C8.10471 84.6904 -4.93639 57.669 3.72365 32.8525C12.3837 8.03604 39.4051 -5.00506 64.2216 3.65498Z" stroke="url(#paint1_linear_37_22950)"/>
    <path d="M61.5858 11.2082C82.2336 18.4136 93.0712 40.8693 85.8658 61.5171C78.6605 82.1649 56.2048 93.0025 35.557 85.7971C14.9092 78.5918 4.07163 56.1361 11.277 35.4883C18.4823 14.8405 40.938 4.00291 61.5858 11.2082Z" fill="url(#paint2_linear_37_22950)" fill-opacity="0.6"/>
    <path d="M61.5858 11.2082C82.2336 18.4136 93.0712 40.8693 85.8658 61.5171C78.6605 82.1649 56.2048 93.0025 35.557 85.7971C14.9092 78.5918 4.07163 56.1361 11.277 35.4883C18.4823 14.8405 40.938 4.00291 61.5858 11.2082Z" stroke="url(#paint3_linear_37_22950)"/>
    <path d="M58.95 18.7616C75.4291 24.5122 84.0632 42.4022 78.3126 58.8813C72.562 75.3605 54.672 83.9945 38.1929 78.2439C21.7137 72.4933 13.0797 54.6033 18.8303 38.1242C24.5809 21.6451 42.4709 13.011 58.95 18.7616Z" fill="url(#paint4_radial_37_22950)"/>
    <path d="M49.479 47.4915C49.471 44.8461 48.6792 42.2623 47.2037 40.0666C45.7281 37.871 43.6349 36.1618 41.1886 35.155C38.7422 34.1482 36.0523 33.889 33.4587 34.4101C30.8651 34.9312 28.4841 36.2092 26.6163 38.0827C24.7486 39.9562 23.478 42.3411 22.965 44.9364C22.4519 47.5316 22.7195 50.2206 23.7338 52.6639C24.7482 55.1071 26.4638 57.195 28.664 58.6637C30.8643 60.1325 33.4504 60.9163 36.0959 60.9161C39.6496 60.9067 43.0544 59.4879 45.5634 56.9712C48.0724 54.4544 49.4806 51.0452 49.479 47.4915ZM36.0959 59.4708C33.7248 59.479 31.4047 58.7834 29.4293 57.4721C27.4538 56.1608 25.9119 54.2928 24.9989 52.1046C24.0858 49.9164 23.8427 47.5065 24.3002 45.18C24.7577 42.8535 25.8954 40.7151 27.5691 39.0356C29.2427 37.3561 31.3772 36.2111 33.702 35.7455C36.0269 35.2799 38.4377 35.5147 40.629 36.4201C42.8204 37.3256 44.6938 38.861 46.0119 40.8318C47.3301 42.8027 48.0337 45.1204 48.0337 47.4915C48.0355 50.662 46.7797 53.7037 44.5417 55.9495C42.3037 58.1952 39.2663 59.4616 36.0959 59.4708Z" fill="url(#paint5_radial_37_22950)"/>
    <path d="M41.4179 44.5758C41.4174 43.7386 41.1297 42.9269 40.6029 42.2761C40.0762 41.6254 39.3422 41.175 38.5234 41.0001L38.5234 39.7873C38.5234 39.5954 38.4472 39.4114 38.3115 39.2757C38.1757 39.14 37.9917 39.0637 37.7998 39.0637C37.6079 39.0637 37.4238 39.14 37.2881 39.2757C37.1524 39.4114 37.0762 39.5954 37.0762 39.7873L37.0762 40.9201L35.5874 40.9201L35.5874 39.7873C35.5874 39.6923 35.5687 39.5982 35.5323 39.5104C35.496 39.4226 35.4427 39.3429 35.3755 39.2757C35.3083 39.2085 35.2285 39.1552 35.1407 39.1188C35.0529 39.0824 34.9588 39.0637 34.8638 39.0637C34.7688 39.0637 34.6747 39.0824 34.5869 39.1188C34.4991 39.1552 34.4193 39.2085 34.3521 39.2757C34.2849 39.3429 34.2316 39.4226 34.1953 39.5104C34.1589 39.5982 34.1402 39.6923 34.1402 39.7873L34.1402 40.9201L32.5521 40.9201C32.3604 40.9201 32.1766 40.9962 32.0411 41.1317C31.9055 41.2672 31.8294 41.451 31.8294 41.6427L31.8294 53.376C31.8294 53.5677 31.9055 53.7515 32.0411 53.887C32.1766 54.0225 32.3604 54.0987 32.5521 54.0987L34.1382 54.0987L34.1382 55.3182C34.1382 55.5101 34.2145 55.6942 34.3502 55.8299C34.4859 55.9656 34.67 56.0418 34.8619 56.0418C35.0538 56.0418 35.2378 55.9656 35.3735 55.8299C35.5093 55.6942 35.5855 55.5101 35.5855 55.3182L35.5855 54.0987L37.0762 54.0987L37.0762 55.3182C37.0762 55.5101 37.1524 55.6942 37.2881 55.8299C37.4238 55.9656 37.6079 56.0418 37.7998 56.0418C37.9917 56.0418 38.1757 55.9656 38.3115 55.8299C38.4472 55.6942 38.5234 55.5101 38.5234 55.3182L38.5234 54.0186C39.2109 53.8718 39.8416 53.53 40.3399 53.034C40.8382 52.5381 41.183 51.909 41.3331 51.2222C41.4831 50.5354 41.432 49.8198 41.186 49.1613C40.9399 48.5027 40.5092 47.929 39.9456 47.5089C40.4026 47.1685 40.7737 46.7261 41.0294 46.2168C41.285 45.7076 41.418 45.1456 41.4179 44.5758ZM39.9706 50.442C39.9714 51.0265 39.7404 51.5875 39.3282 52.0021C38.9161 52.4166 38.3563 52.6508 37.7718 52.6533L33.2786 52.6533L33.2786 48.2315L37.7718 48.2315C38.3566 48.2333 38.9168 48.4671 39.3294 48.8815C39.742 49.2959 39.9733 49.8571 39.9726 50.442L39.9706 50.442ZM37.7718 46.7862L33.2786 46.7862L33.2786 42.3654L37.7718 42.3654C38.358 42.3654 38.9203 42.5982 39.3348 43.0128C39.7493 43.4273 39.9822 43.9895 39.9822 44.5758C39.9822 45.162 39.7493 45.7243 39.3348 46.1388C38.9203 46.5533 38.358 46.7862 37.7718 46.7862Z" fill="url(#paint6_radial_37_22950)"/>
    <path d="M61.6021 59.493C61.4162 59.5395 61.2564 59.6579 61.1578 59.8222C61.0592 59.9864 61.0299 60.1832 61.0763 60.3691C61.4034 61.6554 61.4529 62.9965 61.2216 64.3035C60.9904 65.6104 60.4836 66.8531 59.7349 67.9491C58.9863 69.045 58.0129 69.969 56.8796 70.6597C55.7462 71.3504 54.4788 71.792 53.1617 71.9551C51.8445 72.1181 50.5077 71.999 49.2401 71.6055C47.9725 71.212 46.8032 70.5533 45.8099 69.673C44.8166 68.7927 44.0221 67.7111 43.4791 66.5C42.9361 65.289 42.657 63.9762 42.6606 62.6489C42.6606 62.3769 42.6722 62.1074 42.6953 61.8404C42.7059 61.6526 42.6429 61.4681 42.5196 61.326C42.3963 61.1839 42.2225 61.0955 42.0351 61.0796C41.8477 61.0636 41.6614 61.1214 41.5159 61.2406C41.3704 61.3597 41.2771 61.531 41.2558 61.7179C41.2288 62.0247 41.2153 62.3351 41.2153 62.6489C41.217 64.177 41.5433 65.6873 42.1724 67.0799C42.8016 68.4725 43.7193 69.7156 44.8648 70.7269C46.0103 71.7383 47.3575 72.4949 48.8173 72.9466C50.2771 73.3984 51.8162 73.535 53.3327 73.3474C54.8493 73.1598 56.3087 72.6523 57.6144 71.8585C58.9201 71.0647 60.0424 70.0026 60.907 68.7426C61.7715 67.4826 62.3587 66.0534 62.6295 64.5495C62.9004 63.0456 62.8488 61.5013 62.4782 60.0188C62.4554 59.9267 62.4146 59.8399 62.3582 59.7635C62.3018 59.6872 62.2308 59.6227 62.1494 59.5738C62.068 59.525 61.9777 59.4927 61.8838 59.4788C61.7899 59.4649 61.6942 59.4698 61.6021 59.493Z" fill="url(#paint7_radial_37_22950)"/>
    <path d="M62.29 39.549C62.1068 39.4926 61.9087 39.5112 61.7392 39.6009C61.5698 39.6905 61.4429 39.8438 61.3865 40.0271C61.33 40.2103 61.3487 40.4084 61.4384 40.5779C61.528 40.7473 61.6813 40.8742 61.8645 40.9306C63.3039 41.3678 64.5936 42.1963 65.5897 43.3237C66.5857 44.451 67.249 45.8329 67.5056 47.3152C67.7622 48.7975 67.6019 50.322 67.0427 51.7185C66.4835 53.1151 65.5473 54.3288 64.3386 55.2244C63.1299 56.12 61.6962 56.6622 60.1973 56.7905C58.6984 56.9188 57.1934 56.6283 55.85 55.9512C54.5066 55.2742 53.3778 54.2372 52.5893 52.9561C51.8008 51.6749 51.3837 50.1999 51.3846 48.6956C51.384 48.0565 51.4584 47.4195 51.6065 46.7977C51.6287 46.7054 51.6325 46.6097 51.6178 46.5159C51.603 46.4221 51.5699 46.3321 51.5203 46.2511C51.4708 46.1701 51.4058 46.0997 51.329 46.0438C51.2522 45.988 51.1652 45.9478 51.0729 45.9255C50.9806 45.9033 50.8848 45.8995 50.7911 45.9142C50.6973 45.929 50.6073 45.9621 50.5263 46.0117C50.4453 46.0612 50.3749 46.1262 50.319 46.203C50.2632 46.2798 50.223 46.3668 50.2007 46.4591C49.8818 47.7711 49.8448 49.1358 50.0922 50.4632C50.3396 51.7906 50.8658 53.0503 51.636 54.1593C52.4062 55.2683 53.4029 56.2013 54.5603 56.8967C55.7177 57.592 57.0095 58.034 58.3502 58.1933C59.691 58.3526 61.0504 58.2257 62.3385 57.8209C63.6266 57.4161 64.8142 56.7427 65.8228 55.845C66.8314 54.9474 67.6382 53.846 68.1898 52.6136C68.7413 51.3812 69.0252 50.0458 69.0226 48.6956C69.0325 46.6499 68.3829 44.6554 67.1702 43.0079C65.9575 41.3604 64.2462 40.1475 62.29 39.549Z" fill="url(#paint8_radial_37_22950)"/>
    <path d="M44.3963 35.2237C44.585 35.2545 44.7782 35.2099 44.9342 35.0994C45.0902 34.9889 45.1964 34.8214 45.2299 34.6332C45.4809 33.2117 46.1512 31.8978 47.1548 30.8603C48.1584 29.8228 49.4493 29.1091 50.8616 28.8111C52.274 28.513 53.7432 28.6441 55.0804 29.1876C56.4177 29.731 57.5618 30.662 58.3658 31.8608C59.1698 33.0597 59.5968 34.4715 59.5921 35.915C59.5874 37.3584 59.1511 38.7675 58.3393 39.961C57.5275 41.1546 56.3772 42.078 55.0365 42.6127C53.6957 43.1474 52.2257 43.2689 50.8153 42.9616C50.7215 42.9383 50.624 42.9341 50.5285 42.9491C50.433 42.9642 50.3415 42.9982 50.2594 43.0492C50.1774 43.1003 50.1064 43.1673 50.0506 43.2462C49.9949 43.3252 49.9555 43.4146 49.935 43.509C49.9144 43.6034 49.9129 43.701 49.9307 43.796C49.9485 43.8911 49.9852 43.9815 50.0386 44.0621C50.092 44.1427 50.161 44.2117 50.2415 44.2652C50.3221 44.3186 50.4125 44.3553 50.5075 44.3732C51.6993 44.6284 52.9314 44.6304 54.124 44.3791C55.3166 44.1278 56.4431 43.6287 57.4305 42.9143C58.4179 42.1999 59.2443 41.286 59.856 40.2319C60.4677 39.1777 60.8512 38.0068 60.9816 36.7951C61.1119 35.5833 60.9863 34.3576 60.6128 33.1975C60.2392 32.0373 59.6262 30.9686 58.8133 30.0605C58.0004 29.1524 57.0058 28.4252 55.894 27.926C54.7821 27.4267 53.5778 27.1667 52.359 27.1625C50.3085 27.1596 48.3234 27.8842 46.757 29.2075C45.1906 30.5308 44.1445 32.3669 43.8049 34.3891C43.7727 34.5782 43.817 34.7723 43.9279 34.9288C44.0388 35.0853 44.2072 35.1914 44.3963 35.2237Z" fill="url(#paint9_radial_37_22950)"/>
    <path d="M55.927 64.7436C55.927 64.732 55.9135 64.7243 55.9096 64.7137C55.9058 64.7031 55.9096 64.6954 55.9096 64.6876L52.6745 57.2585C52.6101 57.1389 52.5145 57.0391 52.3979 56.9695C52.2812 56.8999 52.148 56.8632 52.0122 56.8632C51.8764 56.8632 51.7431 56.8999 51.6265 56.9695C51.5099 57.0391 51.4143 57.1389 51.3498 57.2585L48.1148 64.6876L48.1148 64.7137C48.1148 64.7137 48.1012 64.732 48.0974 64.7436C48.0665 64.8368 48.0546 64.9352 48.0627 65.033C48.0627 65.0446 48.0704 65.0552 48.0723 65.0668C48.0853 65.1632 48.1181 65.2559 48.1688 65.3389C48.1755 65.3505 48.1746 65.3649 48.1823 65.3765L51.4174 70.1698C51.4834 70.2679 51.5725 70.3483 51.6769 70.4038C51.7813 70.4594 51.8978 70.4885 52.016 70.4885C52.1343 70.4885 52.2508 70.4594 52.3551 70.4038C52.4595 70.3483 52.5487 70.2679 52.6147 70.1698L55.8498 65.3765C55.8575 65.3649 55.8565 65.3505 55.8633 65.3389C55.9135 65.2557 55.9463 65.1631 55.9598 65.0668C55.9598 65.0552 55.9675 65.0446 55.9685 65.033C55.9748 64.9347 55.9607 64.8362 55.927 64.7436ZM52.0078 59.3531L54.2665 64.5439L52.0078 65.308L49.7482 64.5439L52.0078 59.3531ZM52.0078 68.4765L50.5702 66.3471L51.7763 66.7553C51.9264 66.8067 52.0893 66.8067 52.2394 66.7553L53.4454 66.3471L52.0078 68.4765Z" fill="url(#paint10_radial_37_22950)"/>
    <path d="M53.1927 38.4115L51.5428 38.4115C51.3021 38.4107 51.0715 38.3145 50.9017 38.1439C50.7318 37.9734 50.6366 37.7424 50.6368 37.5017C50.6368 37.3097 50.5606 37.1257 50.4249 36.99C50.2892 36.8543 50.1051 36.778 49.9132 36.778C49.7213 36.778 49.5372 36.8543 49.4015 36.99C49.2658 37.1257 49.1896 37.3097 49.1896 37.5017C49.1898 38.1255 49.4375 38.7238 49.8783 39.1654C50.3191 39.6069 50.917 39.8555 51.5409 39.8568L51.6431 39.8568L51.6431 41.0561C51.6431 41.248 51.7194 41.4321 51.8551 41.5678C51.9908 41.7035 52.1748 41.7797 52.3668 41.7797C52.5587 41.7797 52.7427 41.7035 52.8784 41.5678C53.0141 41.4321 53.0904 41.248 53.0904 41.0561L53.0904 39.8568L53.1927 39.8568C53.8175 39.8568 54.4168 39.6086 54.8587 39.1667C55.3005 38.7249 55.5488 38.1256 55.5488 37.5007C55.5488 36.8758 55.3005 36.2765 54.8587 35.8347C54.4168 35.3928 53.8175 35.1446 53.1927 35.1446L51.5428 35.1446C51.3015 35.1446 51.0701 35.0487 50.8994 34.8781C50.7288 34.7075 50.633 34.476 50.633 34.2347C50.633 33.9934 50.7288 33.762 50.8994 33.5914C51.0701 33.4208 51.3015 33.3249 51.5428 33.3249L53.1927 33.3249C53.4334 33.3257 53.6639 33.4219 53.8338 33.5925C54.0036 33.763 54.0989 33.994 54.0986 34.2347C54.0986 34.4267 54.1749 34.6107 54.3106 34.7464C54.4463 34.8821 54.6303 34.9584 54.8222 34.9584C55.0142 34.9584 55.1982 34.8821 55.3339 34.7464C55.4696 34.6107 55.5459 34.4267 55.5459 34.2347C55.5456 33.6109 55.2979 33.0126 54.8571 32.571C54.4164 32.1295 53.8185 31.8809 53.1946 31.8796L53.0923 31.8796L53.0923 30.6774C53.0923 30.4855 53.0161 30.3014 52.8804 30.1657C52.7447 30.03 52.5606 29.9538 52.3687 29.9538C52.1768 29.9538 51.9927 30.03 51.857 30.1657C51.7213 30.3014 51.6451 30.4855 51.6451 30.6774L51.6451 31.8796L51.5428 31.8796C50.9182 31.8796 50.3191 32.1277 49.8775 32.5694C49.4358 33.0111 49.1876 33.6101 49.1876 34.2347C49.1876 34.8594 49.4358 35.4584 49.8775 35.9001C50.3191 36.3418 50.9182 36.5899 51.5428 36.5899L53.1927 36.5899C53.4342 36.5899 53.6659 36.6859 53.8367 36.8567C54.0075 37.0275 54.1034 37.2591 54.1034 37.5007C54.1034 37.7422 54.0075 37.9739 53.8367 38.1447C53.6659 38.3155 53.4342 38.4115 53.1927 38.4115Z" fill="url(#paint11_radial_37_22950)"/>
    <path d="M59.4804 43.719C59.0174 43.7146 58.5602 43.822 58.1476 44.0321C57.7349 44.2422 57.3791 44.5488 57.1103 44.9259C56.8415 45.3029 56.6677 45.7393 56.6036 46.1978C56.5396 46.6564 56.5871 47.1237 56.7423 47.56C56.0337 47.6997 55.4024 48.098 54.9711 48.6773C54.5398 49.2567 54.3394 49.9757 54.4088 50.6946C54.4783 51.4135 54.8126 52.0809 55.3467 52.567C55.8809 53.0532 56.5767 53.3233 57.299 53.3248C57.7139 53.3234 58.1235 53.2323 58.5 53.058C58.8765 52.8836 59.2109 52.6301 59.4804 52.3147C59.8669 52.7619 60.381 53.0801 60.9536 53.2265C61.5263 53.3729 62.13 53.3405 62.6837 53.1337C63.2373 52.9268 63.7144 52.5554 64.0508 52.0694C64.3871 51.5833 64.5666 51.006 64.5651 50.4149C64.5644 49.7411 64.3302 49.0884 63.9023 48.5679C63.4745 48.0474 62.8795 47.6912 62.2186 47.56C62.3738 47.1237 62.4213 46.6564 62.3573 46.1978C62.2932 45.7393 62.1194 45.3029 61.8506 44.9259C61.5818 44.5488 61.226 44.2422 60.8133 44.0321C60.4007 43.822 59.9435 43.7146 59.4804 43.719ZM59.4804 45.1662C59.7708 45.1645 60.055 45.2491 60.2972 45.4091C60.5394 45.5692 60.7286 45.7976 60.8408 46.0654C60.953 46.3331 60.9832 46.6282 60.9275 46.9131C60.8717 47.198 60.7326 47.46 60.5278 47.6657C60.323 47.8715 60.0617 48.0118 59.7771 48.0688C59.4924 48.1258 59.1972 48.0971 58.929 47.9861C58.6607 47.8751 58.4314 47.687 58.2702 47.4455C58.109 47.2041 58.0232 46.9202 58.0236 46.6299C58.023 46.2425 58.1761 45.8708 58.4492 45.5961C58.7223 45.3214 59.0931 45.1661 59.4804 45.1643L59.4804 45.1662ZM57.299 51.8815C57.0089 51.8828 56.7249 51.798 56.483 51.6378C56.2411 51.4776 56.0522 51.2493 55.9402 50.9817C55.8282 50.714 55.7982 50.4192 55.8539 50.1345C55.9096 49.8498 56.0486 49.588 56.2532 49.3823C56.4578 49.1766 56.7188 49.0363 57.0032 48.9791C57.2876 48.9219 57.5826 48.9504 57.8508 49.061C58.119 49.1715 58.3484 49.3592 58.5098 49.6003C58.6713 49.8413 58.7576 50.1248 58.7578 50.4149C58.758 50.8024 58.6046 51.1742 58.3311 51.4488C58.0577 51.7233 57.6865 51.8782 57.299 51.8795L57.299 51.8815ZM63.1198 50.4149C63.1184 50.7032 63.0317 50.9846 62.8706 51.2236C62.7094 51.4627 62.4811 51.6486 62.2143 51.758C61.9476 51.8673 61.6544 51.8952 61.3719 51.8381C61.0893 51.7809 60.83 51.6414 60.6267 51.437C60.4234 51.2326 60.2852 50.9726 60.2296 50.6897C60.1739 50.4068 60.2034 50.1138 60.3141 49.8477C60.4249 49.5815 60.612 49.3542 60.8519 49.1943C61.0918 49.0344 61.3736 48.9492 61.6619 48.9493C62.0495 48.9506 62.4208 49.1057 62.6941 49.3805C62.9674 49.6553 63.1205 50.0273 63.1198 50.4149Z" fill="url(#paint12_radial_37_22950)"/>
    <path d="M58.95 18.7616C75.4291 24.5122 84.0632 42.4022 78.3126 58.8813C72.562 75.3605 54.672 83.9945 38.1929 78.2439C21.7137 72.4933 13.0797 54.6033 18.8303 38.1242C24.5809 21.6451 42.4709 13.011 58.95 18.7616Z" stroke="url(#paint13_linear_37_22950)"/>
  </g>
  <defs>
    <linearGradient id="paint0_linear_37_22950" x1="32.7564" y1="93.8226" x2="64.3864" y2="3.1829" gradientUnits="userSpaceOnUse">
      <stop stop-color="white" stop-opacity="0.3"/>
      <stop offset="0.5" stop-color="#808080" stop-opacity="0.15"/>
      <stop offset="1" stop-opacity="0"/>
    </linearGradient>
    <linearGradient id="paint1_linear_37_22950" x1="32.7564" y1="93.8226" x2="64.3864" y2="3.1829" gradientUnits="userSpaceOnUse">
      <stop stop-color="white" stop-opacity="0.3"/>
      <stop offset="0.5" stop-color="white" stop-opacity="0.15"/>
      <stop offset="1" stop-color="white" stop-opacity="0"/>
    </linearGradient>
    <linearGradient id="paint2_linear_37_22950" x1="35.3923" y1="86.2692" x2="61.7505" y2="10.7362" gradientUnits="userSpaceOnUse">
      <stop stop-color="white" stop-opacity="0.3"/>
      <stop offset="0.5" stop-color="#808080" stop-opacity="0.15"/>
      <stop offset="1" stop-opacity="0"/>
    </linearGradient>
    <linearGradient id="paint3_linear_37_22950" x1="35.3923" y1="86.2692" x2="61.7505" y2="10.7362" gradientUnits="userSpaceOnUse">
      <stop stop-color="white" stop-opacity="0.3"/>
      <stop offset="0.5" stop-color="white" stop-opacity="0.15"/>
      <stop offset="1" stop-color="white" stop-opacity="0"/>
    </linearGradient>
    <radialGradient id="paint4_radial_37_22950" cx="0" cy="0" r="1" gradientUnits="userSpaceOnUse" gradientTransform="translate(61.7506 10.7362) rotate(19.2371) scale(80)">
      <stop offset="0.35" stop-color="#101010"/>
      <stop offset="0.68" stop-color="#2C1243"/>
      <stop offset="1" stop-color="#9333EA"/>
    </radialGradient>
    <radialGradient id="paint5_radial_37_22950" cx="0" cy="0" r="1" gradientUnits="userSpaceOnUse" gradientTransform="translate(-36.4022 9.76968) rotate(27.8105) scale(94.259 101.668)">
      <stop offset="0.35" stop-color="#101010"/>
      <stop offset="0.68" stop-color="#2C1243"/>
      <stop offset="0.91027" stop-color="#9333EA"/>
    </radialGradient>
    <radialGradient id="paint6_radial_37_22950" cx="0" cy="0" r="1" gradientUnits="userSpaceOnUse" gradientTransform="translate(10.6549 23.6015) rotate(43.045) scale(40.8639 53.2804)">
      <stop offset="0.35" stop-color="#101010"/>
      <stop offset="0.68" stop-color="#2C1243"/>
      <stop offset="0.91027" stop-color="#9333EA"/>
    </radialGradient>
    <radialGradient id="paint7_radial_37_22950" cx="0" cy="0" r="1" gradientUnits="userSpaceOnUse" gradientTransform="translate(-6.45194 46.7594) rotate(18.8339) scale(71.0319 56.7273)">
      <stop offset="0.35" stop-color="#101010"/>
      <stop offset="0.68" stop-color="#2C1243"/>
      <stop offset="0.91027" stop-color="#9333EA"/>
    </radialGradient>
    <radialGradient id="paint8_radial_37_22950" cx="0" cy="0" r="1" gradientUnits="userSpaceOnUse" gradientTransform="translate(7.76879 22.4474) rotate(27.3764) scale(66.9636 71.4701)">
      <stop offset="0.35" stop-color="#101010"/>
      <stop offset="0.68" stop-color="#2C1243"/>
      <stop offset="0.91027" stop-color="#9333EA"/>
    </radialGradient>
    <radialGradient id="paint9_radial_37_22950" cx="0" cy="0" r="1" gradientUnits="userSpaceOnUse" gradientTransform="translate(5.72992 11.3129) rotate(28.0386) scale(60.8245 65.9608)">
      <stop offset="0.35" stop-color="#101010"/>
      <stop offset="0.68" stop-color="#2C1243"/>
      <stop offset="0.91027" stop-color="#9333EA"/>
    </radialGradient>
    <radialGradient id="paint10_radial_37_22950" cx="0" cy="0" r="1" gradientUnits="userSpaceOnUse" gradientTransform="translate(30.5929 44.4544) rotate(42.2591) scale(33.2862 43.3025)">
      <stop offset="0.35" stop-color="#101010"/>
      <stop offset="0.68" stop-color="#2C1243"/>
      <stop offset="0.91027" stop-color="#9333EA"/>
    </radialGradient>
    <radialGradient id="paint11_radial_37_22950" cx="0" cy="0" r="1" gradientUnits="userSpaceOnUse" gradientTransform="translate(35.1402 19.1838) rotate(44.4394) scale(27.7486 36.2574)">
      <stop offset="0.35" stop-color="#101010"/>
      <stop offset="0.68" stop-color="#2C1243"/>
      <stop offset="0.91027" stop-color="#9333EA"/>
    </radialGradient>
    <radialGradient id="paint12_radial_37_22950" cx="0" cy="0" r="1" gradientUnits="userSpaceOnUse" gradientTransform="translate(31.9372 34.9706) rotate(26.4839) scale(35.3882 36.92)">
      <stop offset="0.35" stop-color="#101010"/>
      <stop offset="0.68" stop-color="#2C1243"/>
      <stop offset="0.91027" stop-color="#9333EA"/>
    </radialGradient>
    <linearGradient id="paint13_linear_37_22950" x1="35.3923" y1="86.2693" x2="61.7506" y2="10.7362" gradientUnits="userSpaceOnUse">
      <stop stop-color="white" stop-opacity="0.3"/>
      <stop offset="0.5" stop-color="white" stop-opacity="0.15"/>
      <stop offset="1" stop-color="white" stop-opacity="0"/>
    </linearGradient>
  </defs>
</svg>