<svg xmlns="http://www.w3.org/2000/svg" width="173" height="173" viewBox="0 0 173 173" fill="none">
  <mask id="mask0_37_22987" style="mask-type:luminance" maskUnits="userSpaceOnUse" x="0" y="0" width="173" height="173">
    <path d="M0.104126 0.855957H172.104V172.856H0.104126V0.855957Z" fill="white"/>
  </mask>
  <g mask="url(#mask0_37_22987)">
    <path d="M154.566 67.7978C165.331 105.833 143.275 145.302 105.24 156.066C67.2039 166.831 27.7357 144.775 16.9709 106.74C6.20616 68.7039 28.262 29.2357 66.2978 18.4709C104.333 7.70618 143.802 29.762 154.566 67.7978Z" fill="url(#paint0_linear_37_22987)" fill-opacity="0.4"/>
    <path d="M154.566 67.7978C165.331 105.833 143.275 145.302 105.24 156.066C67.2039 166.831 27.7357 144.775 16.9709 106.74C6.20616 68.7039 28.262 29.2357 66.2978 18.4709C104.333 7.70618 143.802 29.762 154.566 67.7978Z" stroke="url(#paint1_linear_37_22987)"/>
    <path d="M143.355 70.6529C152.317 102.316 133.97 135.146 102.307 144.107C70.644 153.068 37.8141 134.722 28.8528 103.059C19.8916 71.3958 38.2378 38.5659 69.9011 29.6047C101.564 20.6435 134.394 38.9897 143.355 70.6529Z" fill="url(#paint2_linear_37_22987)" fill-opacity="0.6"/>
    <path d="M143.355 70.6529C152.317 102.316 133.97 135.146 102.307 144.107C70.644 153.068 37.8141 134.722 28.8528 103.059C19.8916 71.3958 38.2378 38.5659 69.9011 29.6047C101.564 20.6435 134.394 38.9897 143.355 70.6529Z" stroke="url(#paint3_linear_37_22987)"/>
    <path d="M131.845 73.7048C139.003 98.9955 124.366 125.187 99.0753 132.345C73.7845 139.503 47.5929 124.866 40.4352 99.5753C33.2775 74.2846 47.9141 48.0929 73.2048 40.9352C98.4955 33.7775 124.687 48.4141 131.845 73.7048Z" fill="url(#paint4_radial_37_22987)"/>
    <path d="M105.246 106.692C103.655 106.692 102.346 105.382 102.346 103.698C102.346 102.108 103.655 100.798 105.339 100.798C106.929 100.798 108.239 102.108 108.239 103.792C108.239 104.353 107.865 104.728 107.304 104.728C106.742 104.728 106.368 104.353 106.368 103.792C106.368 103.137 105.9 102.669 105.339 102.669C104.684 102.669 104.217 103.137 104.217 103.698C104.217 104.353 104.684 104.821 105.246 104.821C105.807 104.821 106.181 105.195 106.181 105.757C106.181 106.318 105.807 106.692 105.246 106.692Z" fill="url(#paint5_radial_37_22987)"/>
    <path d="M105.152 110.715C103.562 110.715 102.252 109.405 102.252 107.721C102.252 107.16 102.626 106.786 103.188 106.786C103.749 106.786 104.123 107.16 104.123 107.721C104.123 108.376 104.591 108.844 105.152 108.844C105.807 108.844 106.275 108.376 106.275 107.815C106.275 107.16 105.807 106.692 105.246 106.692C104.684 106.692 104.31 106.318 104.31 105.757C104.31 105.195 104.684 104.821 105.246 104.821C106.836 104.821 108.146 106.131 108.146 107.815C108.146 109.405 106.836 110.715 105.152 110.715Z" fill="url(#paint6_radial_37_22987)"/>
    <path d="M105.246 102.669C104.684 102.669 104.31 102.295 104.31 101.734V100.892C104.31 100.331 104.684 99.9565 105.246 99.9565C105.807 99.9565 106.181 100.331 106.181 100.892V101.734C106.181 102.295 105.807 102.669 105.246 102.669Z" fill="url(#paint7_radial_37_22987)"/>
    <path d="M105.152 111.463C104.591 111.463 104.217 111.089 104.217 110.528V109.779C104.217 109.218 104.591 108.844 105.152 108.844C105.713 108.844 106.088 109.218 106.088 109.779V110.528C106.088 111.089 105.713 111.463 105.152 111.463Z" fill="url(#paint8_radial_37_22987)"/>
    <path d="M105.433 78.1597C104.871 78.1597 104.497 77.7855 104.497 77.2242V72.3597C104.497 71.05 103.468 70.021 102.158 70.021H80.5488C79.9875 70.021 79.6133 69.6468 79.6133 69.0855C79.6133 68.5242 79.9875 68.15 80.5488 68.15H102.158C104.497 68.15 106.368 70.021 106.368 72.3597V77.2242C106.368 77.7855 105.994 78.1597 105.433 78.1597Z" fill="url(#paint9_radial_37_22987)"/>
    <path d="M96.452 103.137H71.7552C69.1359 103.137 66.9843 101.266 66.9843 98.9275V76.4759C66.9843 75.9146 67.3584 75.5404 67.9197 75.5404C68.481 75.5404 68.8552 75.9146 68.8552 76.4759V98.9275C68.8552 100.237 70.1649 101.266 71.7552 101.266H96.452C97.0133 101.266 97.3875 101.64 97.3875 102.202C97.3875 102.763 97.0133 103.137 96.452 103.137Z" fill="url(#paint10_radial_37_22987)"/>
    <path d="M105.433 97.2436C104.871 97.2436 104.497 96.8694 104.497 96.3081V77.9726C104.497 76.6629 103.188 75.6339 101.597 75.6339H77.181C76.6197 75.6339 76.2455 75.2597 76.2455 74.6984C76.2455 74.1371 76.6197 73.7629 77.181 73.7629H101.597C104.217 73.7629 106.368 75.6339 106.368 77.9726V96.3081C106.368 96.8694 105.994 97.2436 105.433 97.2436Z" fill="url(#paint11_radial_37_22987)"/>
    <path d="M105.433 92.5662H95.7972C94.3004 92.5662 93.0843 91.3501 93.0843 89.8533V87.1404C93.0843 85.6436 94.3004 84.4275 95.7972 84.4275H105.339C105.9 84.4275 106.275 84.8017 106.275 85.363C106.275 85.9243 105.9 86.2985 105.339 86.2985H95.7972C95.2359 86.2985 94.9553 86.7662 94.9553 87.1404V89.8533C94.9553 90.4146 95.423 90.6952 95.7972 90.6952H105.433C105.994 90.6952 106.368 91.0694 106.368 91.6307C106.368 92.192 105.994 92.5662 105.433 92.5662Z" fill="url(#paint12_radial_37_22987)"/>
    <path d="M99.2585 89.4791H97.7617C97.2004 89.4791 96.8262 89.1049 96.8262 88.5436C96.8262 87.9823 97.2004 87.6082 97.7617 87.6082H99.2585C99.8198 87.6082 100.194 87.9823 100.194 88.5436C100.194 89.1049 99.8198 89.4791 99.2585 89.4791Z" fill="url(#paint13_radial_37_22987)"/>
    <path d="M72.4101 68.0564H69.0423C68.481 68.0564 68.1068 67.6822 68.1068 67.1209V64.5016H67.6391C67.0778 64.5016 66.7036 64.1274 66.7036 63.5661C66.7036 63.0048 67.0778 62.6306 67.6391 62.6306H72.4101C74.0004 62.6306 75.3101 63.8467 75.3101 65.3435C75.3101 66.8403 74.0004 68.0564 72.4101 68.0564ZM69.9778 66.1855H72.4101C72.8778 66.1855 73.4391 65.8113 73.4391 65.3435C73.4391 64.8758 72.8778 64.5016 72.4101 64.5016H69.9778V66.1855Z" fill="url(#paint14_radial_37_22987)"/>
    <path d="M72.5036 64.5016C71.9423 64.5016 71.5681 64.1274 71.5681 63.5661V61.9758C71.5681 61.4145 71.9423 61.0403 72.5036 61.0403C73.0649 61.0403 73.4391 61.4145 73.4391 61.9758V63.5661C73.4391 64.1274 73.0649 64.5016 72.5036 64.5016Z" fill="url(#paint15_radial_37_22987)"/>
    <path d="M69.2294 64.5016C68.6681 64.5016 68.2939 64.1274 68.2939 63.5661V61.9758C68.2939 61.4145 68.6681 61.0403 69.2294 61.0403C69.7907 61.0403 70.1649 61.4145 70.1649 61.9758V63.5661C70.1649 64.1274 69.7907 64.5016 69.2294 64.5016Z" fill="url(#paint16_radial_37_22987)"/>
    <path d="M69.2294 73.2952C68.6681 73.2952 68.2939 72.921 68.2939 72.3597V70.7693C68.2939 70.2081 68.6681 69.8339 69.2294 69.8339C69.7907 69.8339 70.1649 70.2081 70.1649 70.7693V72.3597C70.1649 72.921 69.7907 73.2952 69.2294 73.2952Z" fill="url(#paint17_radial_37_22987)"/>
    <path d="M72.5036 73.2952C71.9423 73.2952 71.5681 72.921 71.5681 72.3597V70.7693C71.5681 70.2081 71.9423 69.8339 72.5036 69.8339C73.0649 69.8339 73.4391 70.2081 73.4391 70.7693V72.3597C73.4391 72.921 73.0649 73.2952 72.5036 73.2952Z" fill="url(#paint18_radial_37_22987)"/>
    <path d="M69.0423 71.7984C68.8552 71.7984 68.7617 71.7984 68.6681 71.7049H67.6391C67.0778 71.7049 66.7036 71.3307 66.7036 70.7694C66.7036 70.2081 67.0778 69.8339 67.6391 69.8339H68.1068V67.2145C68.1068 66.6532 68.481 66.2791 69.0423 66.2791H72.4101C74.0004 66.2791 75.3101 67.4952 75.3101 68.992C75.3101 70.4887 74.0004 71.7049 72.4101 71.7049H69.4165C69.323 71.7984 69.2294 71.7984 69.0423 71.7984ZM69.9778 69.8339H72.4101C72.8778 69.8339 73.4391 69.4597 73.4391 68.992C73.4391 68.5242 72.8778 68.15 72.4101 68.15H69.9778V69.8339Z" fill="url(#paint19_radial_37_22987)"/>
    <path d="M71.0068 77.9726C65.1133 77.9726 60.2487 73.1081 60.2487 67.2145C60.2487 61.3209 65.1133 56.4564 71.0068 56.4564C76.9004 56.4564 81.7649 61.3209 81.7649 67.2145C81.7649 73.1081 76.9004 77.9726 71.0068 77.9726ZM71.0068 58.3274C66.1423 58.3274 62.1197 62.35 62.1197 67.2145C62.1197 72.079 66.1423 76.1016 71.0068 76.1016C75.8714 76.1016 79.8939 72.079 79.8939 67.2145C79.8939 62.35 75.8714 58.3274 71.0068 58.3274Z" fill="url(#paint20_radial_37_22987)"/>
    <path d="M105.246 116.047C99.5391 116.047 94.9553 111.463 94.9553 105.757C94.9553 100.05 99.5391 95.4662 105.246 95.4662C110.952 95.4662 115.536 100.05 115.536 105.757C115.536 111.463 110.952 116.047 105.246 116.047ZM105.246 97.3372C100.568 97.3372 96.8262 101.079 96.8262 105.757C96.8262 110.434 100.568 114.176 105.246 114.176C109.923 114.176 113.665 110.434 113.665 105.757C113.665 101.079 109.923 97.3372 105.246 97.3372Z" fill="url(#paint21_radial_37_22987)"/>
    <path d="M113.478 71.7983C113.01 71.7983 112.636 71.5177 112.542 71.05C111.794 67.4016 109.081 64.6887 105.526 64.0338V65.437C105.526 65.8112 105.339 66.1854 104.965 66.279C104.591 66.4661 104.217 66.3725 103.936 66.0919L99.8198 61.9758C99.4456 61.6016 99.4456 61.0403 99.8198 60.6661L103.936 56.5499C104.217 56.2693 104.591 56.1757 104.965 56.3628C105.339 56.5499 105.526 56.8306 105.526 57.2048V58.608C110.671 59.3564 114.6 63.8467 114.6 69.0854C114.6 69.8338 114.507 70.4887 114.413 71.05C114.32 71.4242 113.946 71.7983 113.478 71.7983ZM104.591 61.9758C107.678 62.2564 110.297 63.6596 112.075 65.8112C110.858 62.7241 107.958 60.5725 104.497 60.2919C104.029 60.2919 103.655 59.8241 103.655 59.3564L101.784 61.2274L103.655 63.0983V62.9112C103.655 62.6306 103.749 62.4435 103.936 62.2564C104.123 62.0693 104.31 61.9758 104.591 61.9758Z" fill="url(#paint22_radial_37_22987)"/>
    <path d="M67.5455 114.924C67.452 114.924 67.2649 114.924 67.1713 114.831C66.7971 114.644 66.61 114.363 66.61 113.989V112.586C61.4649 111.837 57.5358 107.44 57.5358 102.108C57.5358 101.36 57.6294 100.798 57.7229 100.144C57.8165 99.6759 58.1907 99.3953 58.6584 99.3953C59.1262 99.3953 59.5003 99.6759 59.5939 100.144C60.2487 103.698 63.0552 106.505 66.61 107.066V105.757C66.61 105.382 66.7971 105.008 67.1713 104.915C67.5455 104.728 67.9197 104.821 68.2004 105.102L72.3165 109.218C72.5036 109.405 72.5971 109.592 72.5971 109.873C72.5971 110.153 72.5036 110.34 72.3165 110.528L68.2004 114.644C68.0133 114.831 67.8262 114.924 67.5455 114.924ZM60.0616 105.476C61.2778 108.469 64.1778 110.621 67.5455 110.808C68.0133 110.808 68.3875 111.276 68.3875 111.744L70.2584 109.873L68.3875 108.002V108.189C68.3875 108.469 68.2939 108.657 68.1068 108.844C67.9197 109.031 67.6391 109.124 67.452 109.124C64.552 108.937 61.8391 107.534 60.0616 105.476Z" fill="url(#paint23_radial_37_22987)"/>
    <path d="M131.845 73.7048C139.003 98.9955 124.366 125.187 99.0753 132.345C73.7845 139.503 47.5929 124.866 40.4352 99.5753C33.2775 74.2846 47.9141 48.0929 73.2048 40.9352C98.4955 33.7775 124.687 48.4141 131.845 73.7048Z" stroke="url(#paint24_linear_37_22987)"/>
    <path d="M33.9252 41.9879C37.8568 47.0578 36.9547 54.1913 31.8848 58.1229C26.8149 62.0545 19.6815 61.1524 15.7499 56.0825C11.8183 51.0126 12.7204 43.8791 17.7903 39.9475C22.8602 36.016 29.9936 36.9181 33.9252 41.9879Z" fill="url(#paint25_radial_37_22987)"/>
    <path d="M33.9252 41.9879C37.8568 47.0578 36.9547 54.1913 31.8848 58.1229C26.8149 62.0545 19.6815 61.1524 15.7499 56.0825C11.8183 51.0126 12.7204 43.8791 17.7903 39.9475C22.8602 36.016 29.9936 36.9181 33.9252 41.9879Z" stroke="url(#paint26_linear_37_22987)"/>
  </g>
  <defs>
    <linearGradient id="paint0_linear_37_22987" x1="16.4898" y1="106.876" x2="155.048" y2="67.6616" gradientUnits="userSpaceOnUse">
      <stop stop-color="white" stop-opacity="0.3"/>
      <stop offset="0.5" stop-color="#808080" stop-opacity="0.15"/>
      <stop offset="1" stop-opacity="0"/>
    </linearGradient>
    <linearGradient id="paint1_linear_37_22987" x1="16.4898" y1="106.876" x2="155.048" y2="67.6616" gradientUnits="userSpaceOnUse">
      <stop stop-color="white" stop-opacity="0.3"/>
      <stop offset="0.5" stop-color="white" stop-opacity="0.15"/>
      <stop offset="1" stop-color="white" stop-opacity="0"/>
    </linearGradient>
    <linearGradient id="paint2_linear_37_22987" x1="28.3717" y1="103.195" x2="143.837" y2="70.5167" gradientUnits="userSpaceOnUse">
      <stop stop-color="white" stop-opacity="0.3"/>
      <stop offset="0.5" stop-color="#808080" stop-opacity="0.15"/>
      <stop offset="1" stop-opacity="0"/>
    </linearGradient>
    <linearGradient id="paint3_linear_37_22987" x1="28.3717" y1="103.195" x2="143.837" y2="70.5167" gradientUnits="userSpaceOnUse">
      <stop stop-color="white" stop-opacity="0.3"/>
      <stop offset="0.5" stop-color="white" stop-opacity="0.15"/>
      <stop offset="1" stop-color="white" stop-opacity="0"/>
    </linearGradient>
    <radialGradient id="paint4_radial_37_22987" cx="0" cy="0" r="1" gradientUnits="userSpaceOnUse" gradientTransform="translate(144.178 70.2143) rotate(74.1976) scale(120.635)">
      <stop offset="0.35" stop-color="#101010"/>
      <stop offset="0.68" stop-color="#2C1243"/>
      <stop offset="1" stop-color="#9333EA"/>
    </radialGradient>
    <radialGradient id="paint5_radial_37_22987" cx="0" cy="0" r="1" gradientUnits="userSpaceOnUse" gradientTransform="translate(89.3306 95.4311) rotate(29.7306) scale(18.0261 19.4768)">
      <stop offset="0.35" stop-color="#101010"/>
      <stop offset="0.68" stop-color="#2C1243"/>
      <stop offset="0.91027" stop-color="#9333EA"/>
    </radialGradient>
    <radialGradient id="paint6_radial_37_22987" cx="0" cy="0" r="1" gradientUnits="userSpaceOnUse" gradientTransform="translate(89.2371 99.4537) rotate(29.7306) scale(18.0261 19.4768)">
      <stop offset="0.35" stop-color="#101010"/>
      <stop offset="0.68" stop-color="#2C1243"/>
      <stop offset="0.91027" stop-color="#9333EA"/>
    </radialGradient>
    <radialGradient id="paint7_radial_37_22987" cx="0" cy="0" r="1" gradientUnits="userSpaceOnUse" gradientTransform="translate(100.178 97.4859) rotate(39.6279) scale(6.45191 7.952)">
      <stop offset="0.35" stop-color="#101010"/>
      <stop offset="0.68" stop-color="#2C1243"/>
      <stop offset="0.91027" stop-color="#9333EA"/>
    </radialGradient>
    <radialGradient id="paint8_radial_37_22987" cx="0" cy="0" r="1" gradientUnits="userSpaceOnUse" gradientTransform="translate(100.085 106.458) rotate(38.6437) scale(6.36235 7.78587)">
      <stop offset="0.35" stop-color="#101010"/>
      <stop offset="0.68" stop-color="#2C1243"/>
      <stop offset="0.91027" stop-color="#9333EA"/>
    </radialGradient>
    <radialGradient id="paint9_radial_37_22987" cx="0" cy="0" r="1" gradientUnits="userSpaceOnUse" gradientTransform="translate(20.5296 59.0341) rotate(12.0606) scale(72.6646 37.2532)">
      <stop offset="0.35" stop-color="#101010"/>
      <stop offset="0.68" stop-color="#2C1243"/>
      <stop offset="0.91027" stop-color="#9333EA"/>
    </radialGradient>
    <radialGradient id="paint10_radial_37_22987" cx="0" cy="0" r="1" gradientUnits="userSpaceOnUse" gradientTransform="translate(-0.156296 50.4076) rotate(27.4014) scale(90.9556 93.2422)">
      <stop offset="0.35" stop-color="#101010"/>
      <stop offset="0.68" stop-color="#2C1243"/>
      <stop offset="0.91027" stop-color="#9333EA"/>
    </radialGradient>
    <radialGradient id="paint11_radial_37_22987" cx="0" cy="0" r="1" gradientUnits="userSpaceOnUse" gradientTransform="translate(9.72475 52.3787) rotate(23.9973) scale(87.575 81.6368)">
      <stop offset="0.35" stop-color="#101010"/>
      <stop offset="0.68" stop-color="#2C1243"/>
      <stop offset="0.91027" stop-color="#9333EA"/>
    </radialGradient>
    <radialGradient id="paint12_radial_37_22987" cx="0" cy="0" r="1" gradientUnits="userSpaceOnUse" gradientTransform="translate(63.749 77.0154) rotate(19.2849) scale(37.3793 29.2357)">
      <stop offset="0.35" stop-color="#101010"/>
      <stop offset="0.68" stop-color="#2C1243"/>
      <stop offset="0.91027" stop-color="#9333EA"/>
    </radialGradient>
    <radialGradient id="paint13_radial_37_22987" cx="0" cy="0" r="1" gradientUnits="userSpaceOnUse" gradientTransform="translate(89.3891 85.9042) rotate(17.603) scale(9.38411 6.78697)">
      <stop offset="0.35" stop-color="#101010"/>
      <stop offset="0.68" stop-color="#2C1243"/>
      <stop offset="0.91027" stop-color="#9333EA"/>
    </radialGradient>
    <radialGradient id="paint14_radial_37_22987" cx="0" cy="0" r="1" gradientUnits="userSpaceOnUse" gradientTransform="translate(47.6977 57.6892) rotate(19.8009) scale(24.2951 19.4282)">
      <stop offset="0.35" stop-color="#101010"/>
      <stop offset="0.68" stop-color="#2C1243"/>
      <stop offset="0.91027" stop-color="#9333EA"/>
    </radialGradient>
    <radialGradient id="paint15_radial_37_22987" cx="0" cy="0" r="1" gradientUnits="userSpaceOnUse" gradientTransform="translate(67.4364 57.888) rotate(46.5746) scale(7.229 9.05504)">
      <stop offset="0.35" stop-color="#101010"/>
      <stop offset="0.68" stop-color="#2C1243"/>
      <stop offset="0.91027" stop-color="#9333EA"/>
    </radialGradient>
    <radialGradient id="paint16_radial_37_22987" cx="0" cy="0" r="1" gradientUnits="userSpaceOnUse" gradientTransform="translate(64.1622 57.888) rotate(46.5746) scale(7.229 9.05504)">
      <stop offset="0.35" stop-color="#101010"/>
      <stop offset="0.68" stop-color="#2C1243"/>
      <stop offset="0.91027" stop-color="#9333EA"/>
    </radialGradient>
    <radialGradient id="paint17_radial_37_22987" cx="0" cy="0" r="1" gradientUnits="userSpaceOnUse" gradientTransform="translate(64.1622 66.6816) rotate(46.5746) scale(7.22899 9.05504)">
      <stop offset="0.35" stop-color="#101010"/>
      <stop offset="0.68" stop-color="#2C1243"/>
      <stop offset="0.91027" stop-color="#9333EA"/>
    </radialGradient>
    <radialGradient id="paint18_radial_37_22987" cx="0" cy="0" r="1" gradientUnits="userSpaceOnUse" gradientTransform="translate(67.4364 66.6816) rotate(46.5746) scale(7.22899 9.05504)">
      <stop offset="0.35" stop-color="#101010"/>
      <stop offset="0.68" stop-color="#2C1243"/>
      <stop offset="0.91027" stop-color="#9333EA"/>
    </radialGradient>
    <radialGradient id="paint19_radial_37_22987" cx="0" cy="0" r="1" gradientUnits="userSpaceOnUse" gradientTransform="translate(47.6977 61.2525) rotate(20.1152) scale(24.3436 19.7239)">
      <stop offset="0.35" stop-color="#101010"/>
      <stop offset="0.68" stop-color="#2C1243"/>
      <stop offset="0.91027" stop-color="#9333EA"/>
    </radialGradient>
    <radialGradient id="paint20_radial_37_22987" cx="0" cy="0" r="1" gradientUnits="userSpaceOnUse" gradientTransform="translate(12.7339 36.8613) rotate(29.7306) scale(65.8094 71.1057)">
      <stop offset="0.35" stop-color="#101010"/>
      <stop offset="0.68" stop-color="#2C1243"/>
      <stop offset="0.91027" stop-color="#9333EA"/>
    </radialGradient>
    <radialGradient id="paint21_radial_37_22987" cx="0" cy="0" r="1" gradientUnits="userSpaceOnUse" gradientTransform="translate(49.5063 76.7231) rotate(29.7306) scale(62.9482 68.0141)">
      <stop offset="0.35" stop-color="#101010"/>
      <stop offset="0.68" stop-color="#2C1243"/>
      <stop offset="0.91027" stop-color="#9333EA"/>
    </radialGradient>
    <radialGradient id="paint22_radial_37_22987" cx="0" cy="0" r="1" gradientUnits="userSpaceOnUse" gradientTransform="translate(66.2787 42.1195) rotate(30.4972) scale(46.4255 50.9355)">
      <stop offset="0.35" stop-color="#101010"/>
      <stop offset="0.68" stop-color="#2C1243"/>
      <stop offset="0.91027" stop-color="#9333EA"/>
    </radialGradient>
    <radialGradient id="paint23_radial_37_22987" cx="0" cy="0" r="1" gradientUnits="userSpaceOnUse" gradientTransform="translate(24.2754 85.2527) rotate(30.491) scale(46.4225 50.9262)">
      <stop offset="0.35" stop-color="#101010"/>
      <stop offset="0.68" stop-color="#2C1243"/>
      <stop offset="0.91027" stop-color="#9333EA"/>
    </radialGradient>
    <linearGradient id="paint24_linear_37_22987" x1="39.9541" y1="99.7114" x2="132.326" y2="73.5687" gradientUnits="userSpaceOnUse">
      <stop stop-color="white" stop-opacity="0.3"/>
      <stop offset="0.5" stop-color="white" stop-opacity="0.15"/>
      <stop offset="1" stop-color="white" stop-opacity="0"/>
    </linearGradient>
    <radialGradient id="paint25_radial_37_22987" cx="0" cy="0" r="1" gradientUnits="userSpaceOnUse" gradientTransform="translate(36.3775 40.0863) rotate(52.2073) scale(29.2063)">
      <stop offset="0.35" stop-color="#101010"/>
      <stop offset="0.68" stop-color="#2C1243"/>
      <stop offset="1" stop-color="#9333EA"/>
    </radialGradient>
    <linearGradient id="paint26_linear_37_22987" x1="15.3548" y1="56.3889" x2="34.3203" y2="41.6815" gradientUnits="userSpaceOnUse">
      <stop stop-color="white" stop-opacity="0.3"/>
      <stop offset="0.5" stop-color="white" stop-opacity="0.15"/>
      <stop offset="1" stop-color="white" stop-opacity="0"/>
    </linearGradient>
  </defs>
</svg>