<svg xmlns="http://www.w3.org/2000/svg" width="121" height="120" viewBox="0 0 121 120" fill="none">
  <mask id="mask0_37_23017" style="mask-type:luminance" maskUnits="userSpaceOnUse" x="0" y="0" width="121" height="120">
    <path d="M0.5 0H120.5V120H0.5V0Z" fill="white"/>
  </mask>
  <g mask="url(#mask0_37_23017)">
    <g opacity="0.999994">
      <path d="M44.5784 2.66999C76.2852 -6.13557 109.024 12.3716 117.83 44.0784C126.636 75.7852 108.128 108.525 76.4216 117.33C44.7148 126.136 11.9755 107.628 3.16996 75.9217C-5.63561 44.2149 12.8716 11.4756 44.5784 2.66999Z" fill="url(#paint0_linear_37_23017)" fill-opacity="0.4"/>
      <path d="M44.5784 2.66999C76.2852 -6.13557 109.024 12.3716 117.83 44.0784C126.636 75.7852 108.128 108.525 76.4216 117.33C44.7148 126.136 11.9755 107.628 3.16996 75.9217C-5.63561 44.2149 12.8716 11.4756 44.5784 2.66999Z" stroke="url(#paint1_linear_37_23017)"/>
    </g>
    <path d="M47.7894 14.2322C73.115 7.19886 99.2344 21.9639 106.268 47.2895C113.301 72.615 98.5362 98.7345 73.2106 105.768C47.885 112.801 21.7656 98.0362 14.7322 72.7106C7.69882 47.385 22.4639 21.2656 47.7894 14.2322Z" fill="url(#paint2_linear_37_23017)" fill-opacity="0.6"/>
    <path d="M47.7894 14.2322C73.115 7.19886 99.2344 21.9639 106.268 47.2895C113.301 72.6151 98.5362 98.7345 73.2106 105.768C47.885 112.801 21.7656 98.0362 14.7322 72.7106C7.69882 47.385 22.4639 21.2656 47.7894 14.2322Z" stroke="url(#paint3_linear_37_23017)"/>
    <path d="M51.0005 25.7946C69.9448 20.5334 89.4442 31.5562 94.7054 50.5005C99.9666 69.4448 88.9438 88.9442 69.9995 94.2054C51.0552 99.4666 31.5558 88.4438 26.2946 69.4995C21.0334 50.5552 32.0562 31.0558 51.0005 25.7946Z" fill="url(#paint4_radial_37_23017)"/>
    <path d="M64.4781 63.2091L64.4781 49.3833C63.0001 47.1816 61.9223 44.6566 61.1833 41.7776C60.9216 40.7306 59.4435 40.746 59.1664 41.7929C58.3812 44.8414 57.2265 47.4741 55.6099 49.7682L64.4781 63.2091Z" fill="url(#paint5_radial_37_23017)"/>
    <path d="M68.2809 53.6326L68.2809 65.6878C70.6366 63.6863 73.5618 62.0235 77.1646 60.6378C78.0575 60.2991 78.0575 59.0366 77.1646 58.6825C73.5618 57.2969 70.6366 55.6495 68.2809 53.6326Z" fill="url(#paint6_radial_37_23017)"/>
    <path d="M55.5945 49.7682C57.8577 53.2016 64.4781 53.14 64.4781 49.3833L64.4781 63.2091L55.5945 49.7682Z" fill="url(#paint7_radial_37_23017)"/>
    <path opacity="0.32" d="M58.3658 53.9405L64.4781 63.209L64.4781 52.9244C63.5235 54.6026 60.6598 54.9259 58.3658 53.9405Z" fill="url(#paint8_radial_37_23017)"/>
    <path d="M55.8562 56.1422L55.8562 69.968C57.3342 72.1697 58.412 74.6946 59.151 77.5737C59.4127 78.6207 60.8908 78.6053 61.1679 77.5583C61.9531 74.5099 63.1078 71.8771 64.7244 69.5831L55.8562 56.1422Z" fill="url(#paint9_radial_37_23017)"/>
    <path d="M64.7398 69.5831C62.4766 66.1497 55.8562 66.2113 55.8562 69.968L55.8562 56.1422L64.7398 69.5831Z" fill="url(#paint10_radial_37_23017)"/>
    <path d="M64.7398 69.5831C62.4766 66.1497 55.8562 66.2113 55.8562 69.968L55.8562 56.1422L64.7398 69.5831Z" fill="url(#paint11_radial_37_23017)"/>
    <path opacity="0.32" d="M61.6606 64.9334L55.8562 56.1422L55.8562 65.4415C57.0571 64.1944 59.5975 64.0251 61.6606 64.9334Z" fill="url(#paint12_radial_37_23017)"/>
    <path d="M68.9584 65.1336C69.0815 65.0412 69.2047 64.9489 69.3279 64.8411C69.3895 64.7949 69.4511 64.7487 69.5126 64.7025C69.6358 64.6102 69.759 64.5178 69.8975 64.4254C69.9591 64.3792 70.0207 64.3484 70.0823 64.3022C70.2671 64.1791 70.4364 64.0559 70.6212 63.9327C70.6366 63.9327 70.6366 63.9173 70.652 63.9173C70.8521 63.7942 71.0369 63.671 71.237 63.5324C71.2986 63.5016 71.3602 63.4554 71.4218 63.4246C71.5603 63.3323 71.6989 63.2553 71.8529 63.1629C71.9298 63.1167 72.0068 63.0705 72.0684 63.0397C72.207 62.9628 72.3609 62.8704 72.4995 62.7934C72.5611 62.7626 72.6381 62.7164 72.6997 62.6856C72.8998 62.5779 73.0846 62.4701 73.2847 62.3777C73.3001 62.3623 73.3309 62.3623 73.3463 62.3469C73.5618 62.2391 73.7928 62.116 74.0237 62.0082C74.0853 61.9774 74.1623 61.9466 74.2393 61.9158C74.4086 61.8388 74.5626 61.7619 74.732 61.6849C74.8089 61.6541 74.9013 61.6079 74.9783 61.5771C75.1477 61.5001 75.3016 61.4231 75.471 61.3616C75.548 61.3308 75.6249 61.3 75.7019 61.2538C75.9175 61.1614 76.133 61.069 76.3486 60.992C76.3793 60.9766 76.4101 60.9613 76.4409 60.9459C76.6719 60.8535 76.8874 60.7611 77.1184 60.6687C77.3955 60.561 77.5956 60.3608 77.7034 60.1299C74.3317 60.5917 68.2502 60.4686 68.2502 53.6635L68.2502 65.7187C68.4195 65.5801 68.5889 65.4415 68.7582 65.303C68.8506 65.226 68.9122 65.1798 68.9584 65.1336Z" fill="url(#paint13_radial_37_23017)"/>
    <path opacity="0.32" d="M74.2701 61.885C74.4086 61.8234 74.5472 61.7464 74.6858 61.6848C72.3301 61.6848 69.6358 61.0998 68.2809 58.775L68.2809 65.6879C68.4503 65.5493 68.6197 65.4107 68.789 65.2722C68.8506 65.226 68.8968 65.1798 68.9584 65.149C69.0815 65.0566 69.2047 64.9642 69.3279 64.8565C69.3895 64.8103 69.4511 64.7641 69.5126 64.7179C69.6358 64.6255 69.759 64.5331 69.8975 64.4408C69.9591 64.3946 70.0207 64.3638 70.0823 64.3176C70.2671 64.1944 70.4364 64.0713 70.6212 63.9481C70.6366 63.9481 70.6366 63.9327 70.652 63.9327C70.8521 63.8095 71.0369 63.6864 71.237 63.5478C71.2986 63.517 71.3602 63.4708 71.4218 63.44C71.5603 63.3476 71.6989 63.2707 71.8529 63.1783C71.9298 63.1321 72.0068 63.0859 72.0684 63.0551C72.207 62.9781 72.3609 62.8857 72.4995 62.8088C72.5611 62.778 72.6381 62.7318 72.6997 62.701C72.8998 62.5932 73.0846 62.4854 73.2847 62.3931C73.3001 62.3777 73.3309 62.3777 73.3463 62.3623C73.5618 62.2545 73.7928 62.1313 74.0237 62.0236C74.1315 61.9466 74.1931 61.9158 74.2701 61.885Z" fill="url(#paint14_radial_37_23017)"/>
    <path d="M52.0533 65.6878L52.0533 53.6326C49.6977 55.6341 46.7724 57.2969 43.1697 58.6825C42.2768 59.0212 42.2768 60.2837 43.1697 60.6378C46.7724 62.0235 49.6977 63.6863 52.0533 65.6878Z" fill="url(#paint15_radial_37_23017)"/>
    <path d="M51.5299 54.0637C51.4683 54.1099 51.4221 54.1561 51.3605 54.1869C51.2373 54.2792 51.1142 54.3716 50.991 54.4794C50.9294 54.5256 50.8678 54.5718 50.8062 54.618C50.6831 54.7103 50.5445 54.8027 50.4213 54.8951C50.3598 54.9413 50.2982 54.9721 50.2366 55.0183C50.0518 55.1414 49.8825 55.2646 49.6977 55.3878C49.6823 55.3878 49.6823 55.4032 49.6669 55.4032C49.4668 55.5263 49.282 55.6495 49.0819 55.7881C49.0203 55.8189 48.9587 55.8651 48.8971 55.8958C48.7585 55.9882 48.6046 56.0652 48.466 56.1576C48.389 56.2038 48.3275 56.25 48.2505 56.2807C48.1119 56.3577 47.9579 56.4501 47.8194 56.5271C47.7578 56.5579 47.6808 56.6041 47.6192 56.6349C47.4191 56.7426 47.2343 56.8504 47.0188 56.9428C47.0034 56.9582 46.9726 56.9582 46.9572 56.9736C46.7416 57.0814 46.5107 57.2045 46.2798 57.3123C46.2182 57.3431 46.1412 57.3739 46.0796 57.4047C45.9103 57.4816 45.7563 57.5586 45.5869 57.6356C45.51 57.6664 45.4176 57.7126 45.3406 57.7434C45.1712 57.8204 45.0173 57.8973 44.8479 57.9589C44.7709 57.9897 44.694 58.0205 44.617 58.0667C44.4014 58.1591 44.1859 58.2515 43.9703 58.3284C43.9395 58.3438 43.9087 58.3592 43.878 58.3746C43.647 58.467 43.4315 58.5594 43.2005 58.6518C42.9234 58.7595 42.7232 58.9597 42.6155 59.1906C45.9872 58.7287 52.0687 58.8519 52.0687 65.657L52.0687 53.6018C51.884 53.7866 51.7146 53.9251 51.5299 54.0637Z" fill="url(#paint16_radial_37_23017)"/>
    <path opacity="0.32" d="M51.5299 54.0637C51.4683 54.1099 51.4221 54.1561 51.3605 54.1869C51.2373 54.2792 51.1142 54.3716 50.991 54.4794C50.9294 54.5256 50.8678 54.5718 50.8062 54.618C50.6831 54.7103 50.5445 54.8027 50.4213 54.8951C50.3598 54.9413 50.2982 54.9721 50.2366 55.0183C50.0518 55.1414 49.8825 55.2646 49.6977 55.3878C49.6823 55.3878 49.6823 55.4032 49.6669 55.4032C49.4668 55.5263 49.282 55.6495 49.0819 55.7881C49.0203 55.8189 48.9587 55.8651 48.8971 55.8958C48.7585 55.9882 48.6046 56.0652 48.466 56.1576C48.389 56.2038 48.3275 56.25 48.2505 56.2807C48.1119 56.3577 47.9579 56.4501 47.8194 56.5271C47.7578 56.5579 47.6808 56.6041 47.6192 56.6349C47.4191 56.7426 47.2343 56.8504 47.0188 56.9428C47.0034 56.9582 46.9726 56.9582 46.9572 56.9736C46.7416 57.0814 46.5107 57.2045 46.2798 57.3123C46.2182 57.3431 46.1412 57.3739 46.0796 57.4047C45.9103 57.4816 45.7563 57.5586 45.5869 57.6356C45.51 57.6664 45.4176 57.7126 45.3406 57.7434C45.1712 57.8204 45.0173 57.8973 44.8479 57.9589C44.7709 57.9897 44.694 58.0205 44.617 58.0667C44.4014 58.1591 44.1859 58.2515 43.9703 58.3284C43.9395 58.3438 43.9087 58.3592 43.878 58.3746C43.647 58.467 43.4315 58.5594 43.2005 58.6518C42.9234 58.7595 42.7232 58.9597 42.6155 59.1906C45.9872 58.7287 52.0687 58.8519 52.0687 65.657L52.0687 53.6018C51.884 53.7866 51.7146 53.9251 51.5299 54.0637Z" fill="url(#paint17_radial_37_23017)"/>
    <path d="M52.0533 60.5917L52.0533 53.648C51.884 53.7866 51.7146 53.9251 51.5453 54.0637C51.4837 54.1099 51.4375 54.1561 51.3759 54.1869C51.2527 54.2793 51.1296 54.3716 51.0064 54.4794C50.9448 54.5256 50.8832 54.5718 50.8216 54.618C50.6985 54.7103 50.5599 54.8027 50.4367 54.8951C50.3752 54.9413 50.3136 54.9721 50.252 55.0183C50.0672 55.1414 49.8979 55.2646 49.7131 55.3878C49.6977 55.3878 49.6977 55.4032 49.6823 55.4032C49.4822 55.5263 49.2974 55.6495 49.0973 55.7881C49.0357 55.8189 48.9741 55.8651 48.9125 55.8959C48.774 55.9882 48.62 56.0652 48.4814 56.1576C48.4044 56.2038 48.3429 56.25 48.2659 56.2808C48.1273 56.3577 47.9733 56.4501 47.8348 56.5271C47.7732 56.5579 47.6962 56.6041 47.6346 56.6349C47.4345 56.7426 47.2497 56.8504 47.0342 56.9428C47.0188 56.9582 46.988 56.9582 46.9726 56.9736C46.8494 57.0352 46.7109 57.0968 46.5877 57.1737C48.774 57.3893 51.0064 58.2361 52.0533 60.5917Z" fill="url(#paint18_radial_37_23017)"/>
    <path d="M51.0005 25.7946C69.9448 20.5334 89.4442 31.5562 94.7054 50.5005C99.9666 69.4448 88.9438 88.9442 69.9995 94.2054C51.0552 99.4666 31.5558 88.4438 26.2946 69.4995C21.0334 50.5552 32.0562 31.0558 51.0005 25.7946Z" stroke="url(#paint19_linear_37_23017)"/>
  </g>
  <defs>
    <linearGradient id="paint0_linear_37_23017" x1="76.5554" y1="117.812" x2="44.4446" y2="2.18823" gradientUnits="userSpaceOnUse">
      <stop stop-color="white" stop-opacity="0.3"/>
      <stop offset="0.5" stop-color="#808080" stop-opacity="0.15"/>
      <stop offset="1" stop-opacity="0"/>
    </linearGradient>
    <linearGradient id="paint1_linear_37_23017" x1="76.5554" y1="117.812" x2="44.4446" y2="2.18823" gradientUnits="userSpaceOnUse">
      <stop stop-color="white" stop-opacity="0.3"/>
      <stop offset="0.5" stop-color="white" stop-opacity="0.15"/>
      <stop offset="1" stop-color="white" stop-opacity="0"/>
    </linearGradient>
    <linearGradient id="paint2_linear_37_23017" x1="73.3444" y1="106.25" x2="47.6556" y2="13.7505" gradientUnits="userSpaceOnUse">
      <stop stop-color="white" stop-opacity="0.3"/>
      <stop offset="0.5" stop-color="#808080" stop-opacity="0.15"/>
      <stop offset="1" stop-opacity="0"/>
    </linearGradient>
    <linearGradient id="paint3_linear_37_23017" x1="73.3444" y1="106.25" x2="47.6556" y2="13.7505" gradientUnits="userSpaceOnUse">
      <stop stop-color="white" stop-opacity="0.3"/>
      <stop offset="0.5" stop-color="white" stop-opacity="0.15"/>
      <stop offset="1" stop-color="white" stop-opacity="0"/>
    </linearGradient>
    <radialGradient id="paint4_radial_37_23017" cx="0" cy="0" r="1" gradientUnits="userSpaceOnUse" gradientTransform="translate(48.4372 16.5646) rotate(-15.521) scale(90.1587)">
      <stop offset="0.35" stop-color="#101010"/>
      <stop offset="0.68" stop-color="#2C1243"/>
      <stop offset="1" stop-color="#9333EA"/>
    </radialGradient>
    <radialGradient id="paint5_radial_37_23017" cx="0" cy="0" r="1" gradientUnits="userSpaceOnUse" gradientTransform="translate(36.0259 20.7739) rotate(52.8736) scale(45.762 57.5613)">
      <stop offset="0.35" stop-color="#101010"/>
      <stop offset="0.68" stop-color="#2C1243"/>
      <stop offset="0.91027" stop-color="#9333EA"/>
    </radialGradient>
    <radialGradient id="paint6_radial_37_23017" cx="0" cy="0" r="1" gradientUnits="userSpaceOnUse" gradientTransform="translate(47.184 42.6537) rotate(33.6481) scale(35.7432 43.0929)">
      <stop offset="0.35" stop-color="#101010"/>
      <stop offset="0.68" stop-color="#2C1243"/>
      <stop offset="0.91027" stop-color="#9333EA"/>
    </radialGradient>
    <radialGradient id="paint7_radial_37_23017" cx="0" cy="0" r="1" gradientUnits="userSpaceOnUse" gradientTransform="translate(35.9765 36.792) rotate(39.3832) scale(35.7977 45.8874)">
      <stop offset="0.35" stop-color="#101010"/>
      <stop offset="0.68" stop-color="#2C1243"/>
      <stop offset="0.91027" stop-color="#9333EA"/>
    </radialGradient>
    <radialGradient id="paint8_radial_37_23017" cx="0" cy="0" r="1" gradientUnits="userSpaceOnUse" gradientTransform="translate(44.8678 43.558) rotate(41.5902) scale(25.4539 33.0301)">
      <stop offset="0.35" stop-color="#101010"/>
      <stop offset="0.68" stop-color="#2C1243"/>
      <stop offset="0.91027" stop-color="#9333EA"/>
    </radialGradient>
    <radialGradient id="paint9_radial_37_23017" cx="0" cy="0" r="1" gradientUnits="userSpaceOnUse" gradientTransform="translate(36.2722 35.9161) rotate(52.8736) scale(45.762 57.5613)">
      <stop offset="0.35" stop-color="#101010"/>
      <stop offset="0.68" stop-color="#2C1243"/>
      <stop offset="0.91027" stop-color="#9333EA"/>
    </radialGradient>
    <radialGradient id="paint10_radial_37_23017" cx="0" cy="0" r="1" gradientUnits="userSpaceOnUse" gradientTransform="translate(36.2382 43.5509) rotate(39.3832) scale(35.7977 45.8874)">
      <stop offset="0.35" stop-color="#101010"/>
      <stop offset="0.68" stop-color="#2C1243"/>
      <stop offset="0.91027" stop-color="#9333EA"/>
    </radialGradient>
    <radialGradient id="paint11_radial_37_23017" cx="0" cy="0" r="1" gradientUnits="userSpaceOnUse" gradientTransform="translate(36.2382 43.5509) rotate(39.3832) scale(35.7977 45.8874)">
      <stop offset="0.35" stop-color="#101010"/>
      <stop offset="0.68" stop-color="#2C1243"/>
      <stop offset="0.91027" stop-color="#9333EA"/>
    </radialGradient>
    <radialGradient id="paint12_radial_37_23017" cx="0" cy="0" r="1" gradientUnits="userSpaceOnUse" gradientTransform="translate(43.0382 47.6732) rotate(40.2003) scale(23.669 30.4997)">
      <stop offset="0.35" stop-color="#101010"/>
      <stop offset="0.68" stop-color="#2C1243"/>
      <stop offset="0.91027" stop-color="#9333EA"/>
    </radialGradient>
    <radialGradient id="paint13_radial_37_23017" cx="0" cy="0" r="1" gradientUnits="userSpaceOnUse" gradientTransform="translate(47.3742 42.6846) rotate(33.927) scale(35.4842 42.9528)">
      <stop offset="0.35" stop-color="#101010"/>
      <stop offset="0.68" stop-color="#2C1243"/>
      <stop offset="0.91027" stop-color="#9333EA"/>
    </radialGradient>
    <radialGradient id="paint14_radial_37_23017" cx="0" cy="0" r="1" gradientUnits="userSpaceOnUse" gradientTransform="translate(54.137 52.4793) rotate(29.6535) scale(22.9546 25.7968)">
      <stop offset="0.35" stop-color="#101010"/>
      <stop offset="0.68" stop-color="#2C1243"/>
      <stop offset="0.91027" stop-color="#9333EA"/>
    </radialGradient>
    <radialGradient id="paint15_radial_37_23017" cx="0" cy="0" r="1" gradientUnits="userSpaceOnUse" gradientTransform="translate(21.403 42.6537) rotate(33.6481) scale(35.7433 43.0929)">
      <stop offset="0.35" stop-color="#101010"/>
      <stop offset="0.68" stop-color="#2C1243"/>
      <stop offset="0.91027" stop-color="#9333EA"/>
    </radialGradient>
    <radialGradient id="paint16_radial_37_23017" cx="0" cy="0" r="1" gradientUnits="userSpaceOnUse" gradientTransform="translate(21.7395 42.6229) rotate(33.927) scale(35.4842 42.9528)">
      <stop offset="0.35" stop-color="#101010"/>
      <stop offset="0.68" stop-color="#2C1243"/>
      <stop offset="0.91027" stop-color="#9333EA"/>
    </radialGradient>
    <radialGradient id="paint17_radial_37_23017" cx="0" cy="0" r="1" gradientUnits="userSpaceOnUse" gradientTransform="translate(21.7395 42.6229) rotate(33.927) scale(35.4842 42.9528)">
      <stop offset="0.35" stop-color="#101010"/>
      <stop offset="0.68" stop-color="#2C1243"/>
      <stop offset="0.91027" stop-color="#9333EA"/>
    </radialGradient>
    <radialGradient id="paint18_radial_37_23017" cx="0" cy="0" r="1" gradientUnits="userSpaceOnUse" gradientTransform="translate(34.5177 47.3243) rotate(33.8266) scale(20.492 24.7695)">
      <stop offset="0.35" stop-color="#101010"/>
      <stop offset="0.68" stop-color="#2C1243"/>
      <stop offset="0.91027" stop-color="#9333EA"/>
    </radialGradient>
    <linearGradient id="paint19_linear_37_23017" x1="70.1333" y1="94.6872" x2="50.8667" y2="25.3128" gradientUnits="userSpaceOnUse">
      <stop stop-color="white" stop-opacity="0.3"/>
      <stop offset="0.5" stop-color="white" stop-opacity="0.15"/>
      <stop offset="1" stop-color="white" stop-opacity="0"/>
    </linearGradient>
  </defs>
</svg>