<svg xmlns="http://www.w3.org/2000/svg" width="105" height="105" viewBox="0 0 105 105" fill="none">
  <mask id="mask0_37_23002" style="mask-type:luminance" maskUnits="userSpaceOnUse" x="0" y="0" width="105" height="105">
    <path d="M0.401276 0.734009H104.401V104.734H0.401276V0.734009Z" fill="white"/>
  </mask>
  <g mask="url(#mask0_37_23002)">
    <g opacity="0.999999">
      <path d="M9.24966 80.8442C-6.30197 56.9712 0.417942 25.134 24.291 9.58238C48.164 -5.96926 80.0012 0.75066 95.5529 24.6237C111.104 48.4968 104.385 80.334 80.5115 95.8856C56.6385 111.437 24.8013 104.717 9.24966 80.8442Z" fill="url(#paint0_linear_37_23002)" fill-opacity="0.4"/>
      <path d="M9.24966 80.8442C-6.30197 56.9712 0.417942 25.134 24.291 9.58238C48.164 -5.96926 80.0012 0.75066 95.5529 24.6237C111.104 48.4968 104.385 80.334 80.5115 95.8856C56.6385 111.437 24.8013 104.717 9.24966 80.8442Z" stroke="url(#paint1_linear_37_23002)"/>
    </g>
    <path d="M15.9528 76.4776C2.81112 56.304 8.48404 29.4272 28.6576 16.2855C48.8312 3.14379 75.708 8.81672 88.8497 28.9903C101.991 49.1639 96.3185 76.0407 76.1449 89.1824C55.9713 102.324 29.0945 96.6512 15.9528 76.4776Z" fill="url(#paint2_linear_37_23002)" fill-opacity="0.6"/>
    <path d="M15.9528 76.4776C2.81112 56.304 8.48404 29.4272 28.6576 16.2855C48.8312 3.14379 75.708 8.81672 88.8497 28.9903C101.991 49.1639 96.3185 76.0407 76.1449 89.1824C55.9713 102.324 29.0945 96.6512 15.9528 76.4776Z" stroke="url(#paint3_linear_37_23002)"/>
    <path d="M22.656 72.1109C11.9242 55.6368 16.5502 33.7204 33.0243 22.9886C49.4984 12.2569 71.4148 16.8828 82.1466 33.3569C92.8783 49.831 88.2524 71.7475 71.7782 82.4792C55.3041 93.2109 33.3877 88.585 22.656 72.1109Z" fill="url(#paint4_radial_37_23002)"/>
    <path d="M22.656 72.1109C11.9242 55.6368 16.5502 33.7204 33.0243 22.9886C49.4984 12.2569 71.4148 16.8828 82.1466 33.3569C92.8783 49.831 88.2524 71.7475 71.7782 82.4792C55.3041 93.2109 33.3877 88.585 22.656 72.1109Z" stroke="url(#paint5_linear_37_23002)"/>
    <path d="M76.0674 46.041C76.3351 45.8841 76.5 45.5941 76.5 45.2803V39.4393C76.5 39.1255 76.3351 38.8355 76.0674 38.6786L71.0851 35.7581C70.8173 35.6012 70.4877 35.6012 70.2199 35.7581L65.6702 38.4251L58.3476 34.1328V28.7989C58.3476 28.485 58.1827 28.1951 57.915 28.0381L52.9326 25.1177C52.6648 24.9608 52.3352 24.9608 52.0674 25.1177L47.0851 28.0381C46.8174 28.1951 46.6525 28.485 46.6525 28.7989V34.1326L39.3298 38.4249L34.7801 35.758C34.5123 35.6011 34.1827 35.6011 33.9149 35.758L28.9326 38.6785C28.6649 38.8354 28.5 39.1254 28.5 39.4392V45.2801C28.5 45.594 28.6649 45.884 28.9326 46.0409L33.4823 48.7077V57.2922L28.9326 59.959C28.6649 60.1159 28.5 60.4058 28.5 60.7197V66.5609C28.5 66.8747 28.6649 67.1647 28.9326 67.3216L33.9149 70.242C34.0488 70.3206 34.1981 70.3598 34.3475 70.3598C34.4969 70.3598 34.6462 70.3206 34.7801 70.242L39.3298 67.5752L46.6525 71.8676V77.2013C46.6525 77.5151 46.8174 77.8051 47.0851 77.962L52.0674 80.8823C52.2013 80.9608 52.3506 81 52.5 81C52.6494 81 52.7987 80.9608 52.9326 80.8823L57.9149 77.9618C58.1826 77.8049 58.3475 77.515 58.3475 77.2011V71.8673L65.6701 67.575L70.2198 70.2418C70.3537 70.3203 70.503 70.3595 70.6524 70.3595C70.8017 70.3595 70.9511 70.3203 71.085 70.2418L76.0673 67.3214C76.335 67.1645 76.4999 66.8746 76.4999 66.5606V60.7197C76.4999 60.4059 76.335 60.1159 76.0673 59.959L71.5176 57.2922V48.7077L76.0674 46.041ZM71.5177 46.6792V42.8669L74.7696 40.9608V44.7731L71.5177 46.6792ZM70.6525 62.6261L67.4006 60.7199L70.6525 58.8137L73.9043 60.7199L70.6525 62.6261ZM64.805 66.0537L57.4824 70.3459L53.3652 67.9326V63.9257L61.387 59.2235L64.805 61.227V66.0537ZM52.5 73.2665L49.2481 71.3603L52.5 69.4541L55.7519 71.3603L52.5 73.2665ZM40.1951 66.0538V61.2271L43.6132 59.2236L51.6348 63.9256V67.9326L47.5177 70.3459L40.1951 66.0538ZM34.3475 62.6261L31.0957 60.7199L34.3475 58.8137L37.5994 60.7199L34.3475 62.6261ZM47.5177 35.6542L51.6348 38.0674V42.0744L43.6131 46.7764L40.195 44.773V39.9464L47.5177 35.6542ZM51.6348 32.2265V36.0388L48.3829 34.1327V30.3204L51.6348 32.2265ZM69.7873 42.8669V46.6792L66.5354 44.7731V40.9608L69.7873 42.8669ZM64.805 44.773L61.387 46.7764L53.3652 42.0744V38.0675L57.4824 35.6542L64.805 39.9464V44.773ZM42.7479 57.7022L39.3299 59.7057L35.2127 57.2923V48.7078L39.3299 46.2945L42.7479 48.298V57.7022ZM44.4783 49.3124L51.6348 53.5072V61.897L44.4783 57.7021V49.3124ZM52.5 43.596L59.6565 47.7908L52.5 51.9858L45.3435 47.7908L52.5 43.596ZM53.3652 53.5072L60.5218 49.3123V57.7021L53.3652 61.8971V53.5072ZM56.6172 34.1326L53.3652 36.0388V32.2265L56.6172 30.3203V34.1326ZM38.4647 44.7731L35.2128 46.6792V42.8669L38.4647 40.9608V44.7731ZM62.2523 57.7022V48.298L65.6702 46.2945L69.7873 48.7078V57.2923L65.6701 59.7056L62.2523 57.7022ZM70.6525 37.5331L73.9043 39.4392L70.6525 41.3453L67.4007 39.4392L70.6525 37.5331ZM52.5 26.8928L55.7518 28.7989L52.5 30.7051L49.2482 28.799L52.5 26.8928ZM34.3475 37.5331L37.5993 39.4392L34.3475 41.3454L31.0957 39.4392L34.3475 37.5331ZM30.2304 44.7731V40.9608L33.4823 42.8669V46.6792L30.2304 44.7731ZM30.2304 62.2413L33.4823 64.1475V67.9598L30.2304 66.0536V62.2413ZM35.2127 67.9598V64.1475L38.4646 62.2414V66.0537L35.2127 67.9598ZM48.3829 72.8817L51.6348 74.7879V78.6002L48.3829 76.694V72.8817ZM56.6172 76.694L53.3652 78.6002V74.7879L56.6171 72.8818V76.694H56.6172ZM66.5354 62.2414L69.7873 64.1475V67.9598L66.5354 66.0536V62.2414ZM71.5177 67.9598V64.1475L74.7696 62.2413V66.0536L71.5177 67.9598Z" fill="url(#paint6_radial_37_23002)"/>
  </g>
  <defs>
    <linearGradient id="paint0_linear_37_23002" x1="95.9718" y1="24.3508" x2="8.83071" y2="81.1172" gradientUnits="userSpaceOnUse">
      <stop stop-color="white" stop-opacity="0.3"/>
      <stop offset="0.5" stop-color="#808080" stop-opacity="0.15"/>
      <stop offset="1" stop-opacity="0"/>
    </linearGradient>
    <linearGradient id="paint1_linear_37_23002" x1="95.9718" y1="24.3508" x2="8.83071" y2="81.1172" gradientUnits="userSpaceOnUse">
      <stop stop-color="white" stop-opacity="0.3"/>
      <stop offset="0.5" stop-color="white" stop-opacity="0.15"/>
      <stop offset="1" stop-color="white" stop-opacity="0"/>
    </linearGradient>
    <linearGradient id="paint2_linear_37_23002" x1="89.2687" y1="28.7174" x2="15.5339" y2="76.7505" gradientUnits="userSpaceOnUse">
      <stop stop-color="white" stop-opacity="0.3"/>
      <stop offset="0.5" stop-color="#808080" stop-opacity="0.15"/>
      <stop offset="1" stop-opacity="0"/>
    </linearGradient>
    <linearGradient id="paint3_linear_37_23002" x1="89.2687" y1="28.7174" x2="15.5339" y2="76.7505" gradientUnits="userSpaceOnUse">
      <stop stop-color="white" stop-opacity="0.3"/>
      <stop offset="0.5" stop-color="white" stop-opacity="0.15"/>
      <stop offset="1" stop-color="white" stop-opacity="0"/>
    </linearGradient>
    <radialGradient id="paint4_radial_37_23002" cx="0" cy="0" r="1" gradientUnits="userSpaceOnUse" gradientTransform="translate(14.6295 77.3396) rotate(-123.081) scale(90.1587)">
      <stop offset="0.35" stop-color="#101010"/>
      <stop offset="0.68" stop-color="#2C1243"/>
      <stop offset="1" stop-color="#9333EA"/>
    </radialGradient>
    <linearGradient id="paint5_linear_37_23002" x1="82.5655" y1="33.084" x2="22.237" y2="72.3838" gradientUnits="userSpaceOnUse">
      <stop stop-color="white" stop-opacity="0.3"/>
      <stop offset="0.5" stop-color="white" stop-opacity="0.15"/>
      <stop offset="1" stop-color="white" stop-opacity="0"/>
    </linearGradient>
    <radialGradient id="paint6_radial_37_23002" cx="0" cy="0" r="1" gradientUnits="userSpaceOnUse" gradientTransform="translate(-77.5 -26) rotate(31.6075) scale(175.54 204.797)">
      <stop offset="0.35" stop-color="#101010"/>
      <stop offset="0.68" stop-color="#2C1243"/>
      <stop offset="0.91027" stop-color="#9333EA"/>
    </radialGradient>
  </defs>
</svg>