<svg xmlns="http://www.w3.org/2000/svg" width="36" height="38" viewBox="0 0 36 38" fill="none">
<path d="M21.978 22.2091L21.978 8.38328C20.4999 6.18162 19.4222 3.65664 18.6832 0.777551C18.4214 -0.269391 16.9434 -0.253995 16.6663 0.792947C15.8811 3.8414 14.7263 6.47415 13.1097 8.76818L21.978 22.2091Z" fill="#ffffff"/>
<path d="M25.7809 12.6326L25.7809 24.6878C28.1365 22.6863 31.0618 21.0235 34.6645 19.6378C35.5575 19.2991 35.5575 18.0366 34.6645 17.6825C31.0618 16.2969 28.1365 14.6495 25.7809 12.6326Z" fill="#ffffff"/>
<path d="M13.0944 8.76821C15.3576 12.2016 21.978 12.14 21.978 8.3833L21.978 22.2091L13.0944 8.76821Z" fill="url(#paint2_radial_470_203)"/>
<path opacity="0.32" d="M15.8657 12.9405L21.978 22.209L21.978 11.9243C21.0235 13.6025 18.1598 13.9258 15.8657 12.9405Z" fill="url(#paint3_radial_470_203)"/>
<path d="M13.3561 15.1422L13.3561 28.968C14.8341 31.1697 15.9118 33.6946 16.6509 36.5737C16.9126 37.6207 18.3906 37.6053 18.6678 36.5583C19.453 33.5099 20.6077 30.8771 22.2243 28.5831L13.3561 15.1422Z" fill="url(#paint4_radial_470_203)"/>
<path d="M22.2397 28.5831C19.9764 25.1497 13.3561 25.2113 13.3561 28.968L13.3561 15.1422L22.2397 28.5831Z" fill="url(#paint5_radial_470_203)"/>
<path d="M22.2397 28.5831C19.9764 25.1497 13.3561 25.2113 13.3561 28.968L13.3561 15.1422L22.2397 28.5831Z" fill="url(#paint6_radial_470_203)"/>
<path opacity="0.32" d="M19.1605 23.9334L13.3561 15.1422L13.3561 24.4415C14.557 23.1944 17.0974 23.0251 19.1605 23.9334Z" fill="url(#paint7_radial_470_203)"/>
<path d="M26.4582 24.1336C26.5814 24.0412 26.7046 23.9489 26.8277 23.8411C26.8893 23.7949 26.9509 23.7487 27.0125 23.7025C27.1357 23.6102 27.2588 23.5178 27.3974 23.4254C27.459 23.3792 27.5206 23.3484 27.5821 23.3022C27.7669 23.1791 27.9363 23.0559 28.121 22.9327C28.1364 22.9327 28.1364 22.9173 28.1518 22.9173C28.352 22.7942 28.5367 22.671 28.7369 22.5324C28.7984 22.5016 28.86 22.4554 28.9216 22.4246C29.0602 22.3323 29.1987 22.2553 29.3527 22.1629C29.4297 22.1167 29.5067 22.0705 29.5683 22.0397C29.7068 21.9628 29.8608 21.8704 29.9994 21.7934C30.0609 21.7626 30.1379 21.7164 30.1995 21.6856C30.3997 21.5779 30.5844 21.4701 30.7846 21.3777C30.8 21.3623 30.8307 21.3623 30.8461 21.3469C31.0617 21.2391 31.2926 21.116 31.5236 21.0082C31.5852 20.9774 31.6621 20.9466 31.7391 20.9158C31.9085 20.8388 32.0624 20.7619 32.2318 20.6849C32.3088 20.6541 32.4012 20.6079 32.4781 20.5771C32.6475 20.5001 32.8015 20.4231 32.9708 20.3616C33.0478 20.3308 33.1248 20.3 33.2018 20.2538C33.4173 20.1614 33.6329 20.069 33.8484 19.992C33.8792 19.9766 33.91 19.9613 33.9408 19.9459C34.1717 19.8535 34.3873 19.7611 34.6182 19.6687C34.8953 19.561 35.0955 19.3608 35.2033 19.1299C31.8315 19.5917 25.75 19.4686 25.75 12.6635L25.75 24.7187C25.9194 24.5801 26.0887 24.4415 26.2581 24.303C26.3504 24.226 26.412 24.1798 26.4582 24.1336Z" fill="url(#paint8_radial_470_203)"/>
<path opacity="0.32" d="M31.77 20.8851C31.9086 20.8235 32.0471 20.7465 32.1857 20.6849C29.8301 20.6849 27.1357 20.0999 25.7809 17.775L25.7809 24.6879C25.9502 24.5494 26.1196 24.4108 26.289 24.2722C26.3505 24.226 26.3967 24.1798 26.4583 24.1491C26.5815 24.0567 26.7047 23.9643 26.8278 23.8565C26.8894 23.8103 26.951 23.7641 27.0126 23.718C27.1357 23.6256 27.2589 23.5332 27.3975 23.4408C27.4591 23.3946 27.5207 23.3638 27.5822 23.3177C27.767 23.1945 27.9363 23.0713 28.1211 22.9481C28.1365 22.9481 28.1365 22.9328 28.1519 22.9328C28.352 22.8096 28.5368 22.6864 28.737 22.5478C28.7985 22.5171 28.8601 22.4709 28.9217 22.4401C29.0603 22.3477 29.1988 22.2707 29.3528 22.1783C29.4298 22.1321 29.5068 22.086 29.5683 22.0552C29.7069 21.9782 29.8609 21.8858 29.9994 21.8088C30.061 21.778 30.138 21.7318 30.1996 21.7011C30.3997 21.5933 30.5845 21.4855 30.7847 21.3931C30.8 21.3777 30.8308 21.3777 30.8462 21.3623C31.0618 21.2546 31.2927 21.1314 31.5237 21.0236C31.6314 20.9466 31.693 20.9159 31.77 20.8851Z" fill="url(#paint9_radial_470_203)"/>
<path d="M9.55322 24.6878L9.55322 12.6326C7.1976 14.6341 4.27233 16.2969 0.669613 17.6825C-0.223367 18.0212 -0.223367 19.2837 0.669613 19.6378C4.27233 21.0235 7.1976 22.6863 9.55322 24.6878Z" fill="url(#paint10_radial_470_203)"/>
<path d="M9.02976 13.0637C8.96817 13.1099 8.92199 13.1561 8.8604 13.1869C8.73723 13.2792 8.61406 13.3716 8.49089 13.4794C8.42931 13.5256 8.36772 13.5718 8.30614 13.618C8.18297 13.7103 8.0444 13.8027 7.92123 13.8951C7.85965 13.9413 7.79806 13.9721 7.73648 14.0183C7.55172 14.1414 7.38237 14.2646 7.19761 14.3878C7.18221 14.3878 7.18221 14.4032 7.16682 14.4032C6.96667 14.5263 6.78191 14.6495 6.58176 14.7881C6.52018 14.8189 6.45859 14.8651 6.39701 14.8958C6.25844 14.9882 6.10448 15.0652 5.96591 15.1576C5.88893 15.2038 5.82735 15.25 5.75037 15.2807C5.6118 15.3577 5.45784 15.4501 5.31927 15.5271C5.25769 15.5579 5.18071 15.6041 5.11912 15.6349C4.91897 15.7426 4.73422 15.8504 4.51867 15.9428C4.50328 15.9582 4.47248 15.9582 4.45709 15.9736C4.24154 16.0814 4.0106 16.2045 3.77965 16.3123C3.71807 16.3431 3.64109 16.3739 3.5795 16.4047C3.41014 16.4816 3.25618 16.5586 3.08682 16.6356C3.00984 16.6664 2.91747 16.7126 2.84048 16.7434C2.67113 16.8204 2.51716 16.8973 2.34781 16.9589C2.27083 16.9897 2.19384 17.0205 2.11686 17.0667C1.90132 17.1591 1.68577 17.2515 1.47022 17.3284C1.43943 17.3438 1.40864 17.3592 1.37784 17.3746C1.1469 17.467 0.931356 17.5594 0.700413 17.6518C0.423281 17.7595 0.22313 17.9597 0.115356 18.1906C3.48713 17.7287 9.56863 17.8519 9.56863 24.657L9.56863 12.6018C9.38387 12.7866 9.21451 12.9251 9.02976 13.0637Z" fill="url(#paint11_radial_470_203)"/>
<path opacity="0.32" d="M9.02976 13.0637C8.96817 13.1099 8.92199 13.1561 8.8604 13.1869C8.73723 13.2792 8.61406 13.3716 8.49089 13.4794C8.42931 13.5256 8.36772 13.5718 8.30614 13.618C8.18297 13.7103 8.0444 13.8027 7.92123 13.8951C7.85965 13.9413 7.79806 13.9721 7.73648 14.0183C7.55172 14.1414 7.38237 14.2646 7.19761 14.3878C7.18221 14.3878 7.18221 14.4032 7.16682 14.4032C6.96667 14.5263 6.78191 14.6495 6.58176 14.7881C6.52018 14.8189 6.45859 14.8651 6.39701 14.8958C6.25844 14.9882 6.10448 15.0652 5.96591 15.1576C5.88893 15.2038 5.82735 15.25 5.75037 15.2807C5.6118 15.3577 5.45784 15.4501 5.31927 15.5271C5.25769 15.5579 5.18071 15.6041 5.11912 15.6349C4.91897 15.7426 4.73422 15.8504 4.51867 15.9428C4.50328 15.9582 4.47248 15.9582 4.45709 15.9736C4.24154 16.0814 4.0106 16.2045 3.77965 16.3123C3.71807 16.3431 3.64109 16.3739 3.5795 16.4047C3.41014 16.4816 3.25618 16.5586 3.08682 16.6356C3.00984 16.6664 2.91747 16.7126 2.84048 16.7434C2.67113 16.8204 2.51716 16.8973 2.34781 16.9589C2.27083 16.9897 2.19384 17.0205 2.11686 17.0667C1.90132 17.1591 1.68577 17.2515 1.47022 17.3284C1.43943 17.3438 1.40864 17.3592 1.37784 17.3746C1.1469 17.467 0.931356 17.5594 0.700413 17.6518C0.423281 17.7595 0.22313 17.9597 0.115356 18.1906C3.48713 17.7287 9.56863 17.8519 9.56863 24.657L9.56863 12.6018C9.38387 12.7866 9.21451 12.9251 9.02976 13.0637Z" fill="url(#paint12_radial_470_203)"/>
<path d="M9.55318 19.5918L9.55318 12.6481C9.38382 12.7866 9.21446 12.9252 9.0451 13.0638C8.98352 13.11 8.93733 13.1561 8.87574 13.1869C8.75257 13.2793 8.6294 13.3717 8.50624 13.4795C8.44465 13.5257 8.38307 13.5718 8.32148 13.618C8.19831 13.7104 8.05975 13.8028 7.93658 13.8952C7.87499 13.9414 7.81341 13.9721 7.75182 14.0183C7.56707 14.1415 7.39771 14.2647 7.21295 14.3878C7.19756 14.3878 7.19756 14.4032 7.18216 14.4032C6.98201 14.5264 6.79726 14.6496 6.59711 14.7881C6.53552 14.8189 6.47393 14.8651 6.41235 14.8959C6.27378 14.9883 6.11982 15.0653 5.98126 15.1577C5.90428 15.2038 5.84269 15.25 5.76571 15.2808C5.62714 15.3578 5.47318 15.4502 5.33462 15.5272C5.27303 15.558 5.19605 15.6041 5.13447 15.6349C4.93432 15.7427 4.74956 15.8505 4.53401 15.9429C4.51862 15.9583 4.48783 15.9583 4.47243 15.9737C4.34926 16.0352 4.21069 16.0968 4.08752 16.1738C6.27379 16.3893 8.50624 17.2361 9.55318 19.5918Z" fill="url(#paint13_radial_470_203)"/>
<defs fill="#ffffff">
<radialGradient id="paint0_radial_470_203" cx="0" cy="0" r="1" gradientUnits="userSpaceOnUse" gradientTransform="translate(-6.47423 -20.2261) rotate(52.8736) scale(45.762 57.5613)" fill="#ffffff">
<stop offset="0.35" stop-color="#ffffff" fill="#ffffff"/>
<stop offset="0.68" stop-color="#ffffff" fill="#ffffff"/>
<stop offset="0.91027" stop-color="#ffffff" fill="#ffffff"/>
</radialGradient>
<radialGradient id="paint1_radial_470_203" cx="0" cy="0" r="1" gradientUnits="userSpaceOnUse" gradientTransform="translate(4.68392 1.6537) rotate(33.6481) scale(35.7432 43.0929)" fill="#ffffff">
<stop offset="0.35" stop-color="#ffffff" fill="#ffffff"/>
<stop offset="0.68" stop-color="#ffffff" fill="#ffffff"/>
<stop offset="0.91027" stop-color="#ffffff" fill="#ffffff"/>
</radialGradient>
<radialGradient id="paint2_radial_470_203" cx="0" cy="0" r="1" gradientUnits="userSpaceOnUse" gradientTransform="translate(-6.52361 -4.20805) rotate(39.3832) scale(35.7977 45.8874)" fill="#ffffff">
<stop offset="0.35" stop-color="#ffffff" fill="#ffffff"/>
<stop offset="0.68" stop-color="#ffffff" fill="#ffffff"/>
<stop offset="0.91027" stop-color="#ffffff" fill="#ffffff"/>
</radialGradient>
<radialGradient id="paint3_radial_470_203" cx="0" cy="0" r="1" gradientUnits="userSpaceOnUse" gradientTransform="translate(2.36774 2.55792) rotate(41.5902) scale(25.4539 33.0301)" fill="#ffffff">
<stop offset="0.35" stop-color="#ffffff" fill="#ffffff"/>
<stop offset="0.68" stop-color="#ffffff" fill="#ffffff"/>
<stop offset="0.91027" stop-color="#ffffff" fill="#ffffff"/>
</radialGradient>
<radialGradient id="paint4_radial_470_203" cx="0" cy="0" r="1" gradientUnits="userSpaceOnUse" gradientTransform="translate(-6.22789 -5.08391) rotate(52.8736) scale(45.762 57.5613)" fill="#ffffff">
<stop offset="0.35" stop-color="#ffffff" fill="#ffffff"/>
<stop offset="0.68" stop-color="#ffffff" fill="#ffffff"/>
<stop offset="0.91027" stop-color="#ffffff" fill="#ffffff"/>
</radialGradient>
<radialGradient id="paint5_radial_470_203" cx="0" cy="0" r="1" gradientUnits="userSpaceOnUse" gradientTransform="translate(-6.2619 2.55086) rotate(39.3832) scale(35.7977 45.8874)" fill="#ffffff">
<stop offset="0.35" stop-color="#ffffff" fill="#ffffff"/>
<stop offset="0.68" stop-color="#ffffff" fill="#ffffff"/>
<stop offset="0.91027" stop-color="#ffffff" fill="#ffffff"/>
</radialGradient>
<radialGradient id="paint6_radial_470_203" cx="0" cy="0" r="1" gradientUnits="userSpaceOnUse" gradientTransform="translate(-6.2619 2.55086) rotate(39.3832) scale(35.7977 45.8874)" fill="#ffffff">
<stop offset="0.35" stop-color="#ffffff" fill="#ffffff"/>
<stop offset="0.68" stop-color="#ffffff" fill="#ffffff"/>
<stop offset="0.91027" stop-color="#ffffff" fill="#ffffff"/>
</radialGradient>
<radialGradient id="paint7_radial_470_203" cx="0" cy="0" r="1" gradientUnits="userSpaceOnUse" gradientTransform="translate(0.538092 6.6732) rotate(40.2003) scale(23.669 30.4997)" fill="#ffffff">
<stop offset="0.35" stop-color="#ffffff" fill="#ffffff"/>
<stop offset="0.68" stop-color="#ffffff" fill="#ffffff"/>
<stop offset="0.91027" stop-color="#ffffff" fill="#ffffff"/>
</radialGradient>
<radialGradient id="paint8_radial_470_203" cx="0" cy="0" r="1" gradientUnits="userSpaceOnUse" gradientTransform="translate(4.87403 1.68458) rotate(33.927) scale(35.4842 42.9528)" fill="#ffffff">
<stop offset="0.35" stop-color="#ffffff" fill="#ffffff"/>
<stop offset="0.68" stop-color="#ffffff" fill="#ffffff"/>
<stop offset="0.91027" stop-color="#ffffff" fill="#ffffff"/>
</radialGradient>
<radialGradient id="paint9_radial_470_203" cx="0" cy="0" r="1" gradientUnits="userSpaceOnUse" gradientTransform="translate(11.6369 11.4794) rotate(29.6535) scale(22.9546 25.7968)" fill="#ffffff">
<stop offset="0.35" stop-color="#ffffff" fill="#ffffff"/>
<stop offset="0.68" stop-color="#ffffff" fill="#ffffff"/>
<stop offset="0.91027" stop-color="#ffffff" fill="#ffffff"/>
</radialGradient>
<radialGradient id="paint10_radial_470_203" cx="0" cy="0" r="1" gradientUnits="userSpaceOnUse" gradientTransform="translate(-21.0971 1.6537) rotate(33.6481) scale(35.7433 43.0929)" fill="#ffffff">
<stop offset="0.35" stop-color="#ffffff" fill="#ffffff"/>
<stop offset="0.68" stop-color="#ffffff" fill="#ffffff"/>
<stop offset="0.91027" stop-color="#ffffff" fill="#ffffff"/>
</radialGradient>
<radialGradient id="paint11_radial_470_203" cx="0" cy="0" r="1" gradientUnits="userSpaceOnUse" gradientTransform="translate(-20.7606 1.62294) rotate(33.927) scale(35.4842 42.9528)" fill="#ffffff">
<stop offset="0.35" stop-color="#ffffff" fill="#ffffff"/>
<stop offset="0.68" stop-color="#ffffff" fill="#ffffff"/>
<stop offset="0.91027" stop-color="#ffffff" fill="#ffffff"/>
</radialGradient>
<radialGradient id="paint12_radial_470_203" cx="0" cy="0" r="1" gradientUnits="userSpaceOnUse" gradientTransform="translate(-20.7606 1.62294) rotate(33.927) scale(35.4842 42.9528)" fill="#ffffff">
<stop offset="0.35" stop-color="#ffffff" fill="#ffffff"/>
<stop offset="0.68" stop-color="#ffffff" fill="#ffffff"/>
<stop offset="0.91027" stop-color="#ffffff" fill="#ffffff"/>
</radialGradient>
<radialGradient id="paint13_radial_470_203" cx="0" cy="0" r="1" gradientUnits="userSpaceOnUse" gradientTransform="translate(-7.98246 6.32435) rotate(33.8266) scale(20.492 24.7695)" fill="#ffffff">
<stop offset="0.35" stop-color="#ffffff" fill="#ffffff"/>
<stop offset="0.68" stop-color="#ffffff" fill="#ffffff"/>
<stop offset="0.91027" stop-color="#ffffff" fill="#ffffff"/>
</radialGradient>
</defs>
</svg>