<svg width="25" height="24" viewBox="0 0 25 24" fill="none" xmlns="http://www.w3.org/2000/svg">
<g id="icon-link">
<path id="Vector" d="M16.0149 16.0093L18.2932 12.557L16.0149 11.97C15.7164 11.0747 15.209 10.229 14.4927 9.51268C13.7863 8.80628 12.9506 8.28892 12.0353 7.99047L12.0054 8.02034L9.22975 7.91089L7.99605 7.99047C7.08078 8.28892 6.24508 8.80628 5.53869 9.51268L1.85048 13.2009C-0.616827 15.6682 -0.616827 19.6782 1.85048 22.1455C4.38743 24.6825 8.39687 24.5532 10.8045 22.1455L14.4927 18.4667C15.2091 17.7503 15.7165 16.9047 16.0149 16.0093ZM8.31729 19.6582C7.20299 20.7725 5.42219 20.7427 4.33772 19.6582C3.24335 18.5638 3.24335 16.773 4.33772 15.6786L7.99605 12.0297L9.9958 14.0095L12.0055 15.9794L8.31729 19.6582Z" fill="#381246"/>
<path id="Vector_2" d="M14.4928 18.4666L10.8046 22.1454C8.39693 24.5531 4.38753 24.6823 1.85059 22.1454L4.33778 19.6582C5.42225 20.7426 7.20305 20.7725 8.31735 19.6582L12.0056 15.9794L9.99591 14.0095L14.4928 9.51257C15.2091 10.2289 15.7165 11.0745 16.015 11.9699L18.2933 12.5569L16.015 16.0092C15.7165 16.9046 15.2091 17.7502 14.4928 18.4666Z" fill="url(#paint0_linear_275_12227)" fill-opacity="0.6"/>
<path id="Vector_3" d="M19.4672 20.4564L18.4723 19.4615C18.1974 19.1865 18.1974 18.7415 18.4723 18.4666C18.7473 18.1917 19.1923 18.1916 19.4672 18.4666L20.4621 19.4615C20.7371 19.7364 20.7371 20.1814 20.4621 20.4564C20.1871 20.7313 19.7422 20.7313 19.4672 20.4564Z" fill="white"/>
<path id="Vector_4" d="M4.54394 5.533L3.54899 4.53809C3.27404 4.26314 3.27404 3.81814 3.54899 3.54323C3.82394 3.26833 4.26894 3.26828 4.54385 3.54323L5.5387 4.53809C5.81366 4.81304 5.81366 5.25804 5.5387 5.53295C5.26375 5.80785 4.81885 5.8079 4.54394 5.533Z" fill="white"/>
<path id="Vector_5" d="M20.839 14.3666C20.9395 13.9911 21.3252 13.7686 21.7007 13.8691L23.06 14.2335C23.4355 14.3321 23.657 14.7197 23.5574 15.0952C23.4569 15.4708 23.0712 15.6933 22.6957 15.5927L21.3364 15.2284C20.9634 15.1285 20.7383 14.7444 20.839 14.3666Z" fill="white"/>
<path id="Vector_6" d="M0.453727 8.90444C0.554273 8.5289 0.939995 8.30642 1.31549 8.40697L2.67474 8.77135C3.04883 8.86946 3.27224 9.25715 3.17221 9.63312C3.07167 10.0087 2.68594 10.2311 2.31044 10.1306L0.951203 9.76621C0.578143 9.66637 0.353041 9.28219 0.453727 8.90444Z" fill="white"/>
<path id="Vector_7" d="M14.2391 23.0543L13.8747 21.6951C13.7742 21.3196 13.9967 20.9339 14.3722 20.8333C14.7478 20.7328 15.133 20.9538 15.234 21.3308L15.5983 22.6901C15.6989 23.0656 15.4764 23.4513 15.1008 23.5518C14.7232 23.6525 14.339 23.4274 14.2391 23.0543Z" fill="white"/>
<path id="Vector_8" d="M8.77672 2.66887L8.41234 1.30963C8.31179 0.934086 8.53427 0.548411 8.90982 0.447866C9.28536 0.348305 9.67151 0.568342 9.77158 0.945342L10.136 2.30458C10.2365 2.68013 10.014 3.0658 9.63849 3.16635C9.26079 3.2669 8.87661 3.04184 8.77672 2.66887Z" fill="white"/>
<path id="Vector_9" d="M22.1602 1.85423C19.6929 -0.613079 15.6835 -0.623068 13.2062 1.85423L9.518 5.53305C8.8017 6.24935 8.29428 7.09498 7.99579 7.99042C7.55801 9.3037 7.55806 10.7164 7.99584 12.0297C8.29428 12.925 8.8017 13.7708 9.518 14.4871C10.2145 15.1836 11.0501 15.7008 11.9754 16.0093L12.0052 15.9794C13.0997 14.885 13.0996 13.0942 12.0052 11.9999C10.9109 10.9055 10.9109 9.11466 12.0052 8.02029L15.6934 4.34147C16.2307 3.80418 16.9271 3.52566 17.6833 3.52566C17.7031 3.50582 17.8722 3.51572 17.9121 3.5356C18.4493 3.53555 19.1557 3.82406 19.673 4.34147C20.7674 5.43584 20.7674 7.22662 19.673 8.32104L16.0147 11.9699C16.4525 13.2832 16.4525 14.696 16.0147 16.0093C16.92 15.7009 17.7757 15.1835 18.4721 14.4871L22.1603 10.8082C24.6276 8.34087 24.6275 4.32154 22.1602 1.85423Z" fill="#AC3CE1"/>
<g id="Group">
<path id="Vector_10" d="M12.0053 15.9793L11.9755 16.0092C11.0503 15.7008 10.2145 15.1835 9.51807 14.487L12.0053 11.9998C13.0997 13.0942 13.0997 14.885 12.0053 15.9793Z" fill="#B151DE"/>
<path id="Vector_11" d="M22.1602 10.8082L18.472 14.4871C17.7756 15.1835 16.92 15.7009 16.0146 16.0093C16.4524 14.696 16.4524 13.2832 16.0146 11.97L19.6729 8.32106C20.7674 7.22664 20.7673 5.43586 19.6729 4.34149L22.1602 1.85425C24.6275 4.32151 24.6276 8.34085 22.1602 10.8082Z" fill="url(#paint1_linear_275_12227)" fill-opacity="0.6"/>
</g>
</g>
<defs>
<linearGradient id="paint0_linear_275_12227" x1="10.0719" y1="24.0762" x2="10.0719" y2="9.43632" gradientUnits="userSpaceOnUse">
<stop stop-color="white" stop-opacity="0.3"/>
<stop offset="0.5" stop-color="#808080" stop-opacity="0.15"/>
<stop offset="1" stop-opacity="0"/>
</linearGradient>
<linearGradient id="paint1_linear_275_12227" x1="20.0127" y1="16.0838" x2="20.0127" y2="1.77975" gradientUnits="userSpaceOnUse">
<stop stop-color="white" stop-opacity="0.3"/>
<stop offset="0.5" stop-color="#808080" stop-opacity="0.15"/>
<stop offset="1" stop-opacity="0"/>
</linearGradient>
</defs>
</svg>
