<svg xmlns="http://www.w3.org/2000/svg" width="241" height="240" viewBox="0 0 241 240" fill="none">
  <g clip-path="url(#clip0_37_23022)">
    <g filter="url(#filter0_iii_37_23022)">
      <path d="M0.5 100C0.5 44.7715 45.2715 0 100.5 0H140.5C195.728 0 240.5 44.7715 240.5 100V140C240.5 195.228 195.728 240 140.5 240H100.5C45.2715 240 0.5 195.228 0.5 140V100Z" fill="url(#paint0_linear_37_23022)"/>
    </g>
    <path d="M133.302 154.311V101.789C133.261 95.4628 130.726 89.4094 126.252 84.9484C121.777 80.4875 115.724 77.9808 109.413 77.9749V161.911C109.378 164.897 109.951 167.859 111.095 170.616C112.24 173.373 113.934 175.867 116.072 177.946C118.21 180.025 120.749 181.646 123.533 182.709C126.316 183.772 129.287 184.255 132.263 184.129C138.065 184.525 143.82 182.853 148.512 179.409C134.721 177.946 133.308 169.616 133.308 154.311H133.302Z" fill="white"/>
    <path d="M82.7829 56C76.9925 56.0382 71.4522 58.3708 67.3712 62.4888C63.2902 66.6069 60.9999 72.1759 61 77.9805H158.478C164.268 77.9423 169.809 75.6097 173.89 71.4917C177.971 67.3737 180.261 61.8046 180.261 56H82.7829Z" fill="white"/>
  </g>
  <defs>
    <filter id="filter0_iii_37_23022" x="-34.5358" y="-50.0511" width="275.036" height="310.072" filterUnits="userSpaceOnUse" color-interpolation-filters="sRGB">
      <feFlood flood-opacity="0" result="BackgroundImageFix"/>
      <feBlend mode="normal" in="SourceGraphic" in2="BackgroundImageFix" result="shape"/>
      <feColorMatrix in="SourceAlpha" type="matrix" values="0 0 0 0 0 0 0 0 0 0 0 0 0 0 0 0 0 0 127 0" result="hardAlpha"/>
      <feOffset dx="-35.0358" dy="-50.0511"/>
      <feGaussianBlur stdDeviation="40.05"/>
      <feComposite in2="hardAlpha" operator="arithmetic" k2="-1" k3="1"/>
      <feColorMatrix type="matrix" values="0 0 0 0 0.676044 0 0 0 0 0.235556 0 0 0 0 0.883333 0 0 0 0.76 0"/>
      <feBlend mode="normal" in2="shape" result="effect1_innerShadow_37_23022"/>
      <feColorMatrix in="SourceAlpha" type="matrix" values="0 0 0 0 0 0 0 0 0 0 0 0 0 0 0 0 0 0 127 0" result="hardAlpha"/>
      <feOffset dy="20.0205"/>
      <feGaussianBlur stdDeviation="20"/>
      <feComposite in2="hardAlpha" operator="arithmetic" k2="-1" k3="1"/>
      <feColorMatrix type="matrix" values="0 0 0 0 0.7625 0 0 0 0 1 0 0 0 0 1 0 0 0 0.25 0"/>
      <feBlend mode="normal" in2="effect1_innerShadow_37_23022" result="effect2_innerShadow_37_23022"/>
      <feColorMatrix in="SourceAlpha" type="matrix" values="0 0 0 0 0 0 0 0 0 0 0 0 0 0 0 0 0 0 127 0" result="hardAlpha"/>
      <feOffset/>
      <feGaussianBlur stdDeviation="12"/>
      <feComposite in2="hardAlpha" operator="arithmetic" k2="-1" k3="1"/>
      <feColorMatrix type="matrix" values="0 0 0 0 1 0 0 0 0 1 0 0 0 0 1 0 0 0 0.26 0"/>
      <feBlend mode="normal" in2="effect2_innerShadow_37_23022" result="effect3_innerShadow_37_23022"/>
    </filter>
    <linearGradient id="paint0_linear_37_23022" x1="8.67021" y1="73.5319" x2="150.117" y2="132.766" gradientUnits="userSpaceOnUse">
      <stop stop-color="#DECAFF"/>
      <stop offset="1" stop-color="#691EE2"/>
    </linearGradient>
    <clipPath id="clip0_37_23022">
      <rect x="0.5" width="240" height="240" rx="120" fill="white"/>
    </clipPath>
  </defs>
</svg>