<svg xmlns="http://www.w3.org/2000/svg" viewBox="0 0 27 29" fill="none">
<path d="M16.6565 17.0119V6.88762C15.5742 5.2754 14.785 3.42643 14.2439 1.31816C14.0522 0.551512 12.9699 0.562786 12.7669 1.32943C12.192 3.56172 11.3464 5.48961 10.1626 7.16947L16.6565 17.0119Z" fill="url(#paint0_linear_470_508)"/>
<path d="M19.4412 9.99927V18.827C21.1661 17.3613 23.3082 16.1437 25.9464 15.129C26.6003 14.881 26.6003 13.9565 25.9464 13.6972C23.3082 12.6825 21.1661 11.4762 19.4412 9.99927Z" fill="url(#paint1_linear_470_508)"/>
<path d="M10.1511 7.16955C11.8084 9.6837 16.6563 9.6386 16.6563 6.8877V17.0119L10.1511 7.16955Z" fill="url(#paint2_linear_470_508)"/>
<path opacity="0.32" d="M12.1807 10.2248L16.6565 17.0119V9.48071C15.9575 10.7096 13.8605 10.9464 12.1807 10.2248Z" fill="url(#paint3_linear_470_508)"/>
<path d="M10.3428 11.8369V21.9612C11.4251 23.5734 12.2143 25.4223 12.7555 27.5306C12.9471 28.2973 14.0294 28.286 14.2324 27.5193C14.8074 25.287 15.6529 23.3592 16.8367 21.6793L10.3428 11.8369Z" fill="url(#paint4_linear_470_508)"/>
<path d="M16.848 21.6793C15.1907 19.1651 10.3428 19.2102 10.3428 21.9611V11.8369L16.848 21.6793Z" fill="url(#paint5_linear_470_508)"/>
<path d="M16.848 21.6793C15.1907 19.1651 10.3428 19.2102 10.3428 21.9611V11.8369L16.848 21.6793Z" fill="url(#paint6_linear_470_508)"/>
<path opacity="0.32" d="M14.5931 18.2745L10.3428 11.8369V18.6465C11.2222 17.7333 13.0824 17.6093 14.5931 18.2745Z" fill="url(#paint7_linear_470_508)"/>
<path d="M19.9373 18.421C20.0275 18.3534 20.1177 18.2857 20.2079 18.2068C20.253 18.173 20.2981 18.1392 20.3432 18.1053C20.4334 18.0377 20.5236 17.97 20.625 17.9024C20.6701 17.8686 20.7152 17.846 20.7603 17.8122C20.8956 17.722 21.0196 17.6318 21.1549 17.5416C21.1662 17.5416 21.1662 17.5303 21.1775 17.5303C21.324 17.4402 21.4593 17.35 21.6059 17.2485C21.651 17.2259 21.6961 17.1921 21.7412 17.1696C21.8427 17.1019 21.9441 17.0456 22.0569 16.9779C22.1132 16.9441 22.1696 16.9103 22.2147 16.8877C22.3162 16.8313 22.4289 16.7637 22.5304 16.7073C22.5755 16.6848 22.6318 16.651 22.6769 16.6284C22.8235 16.5495 22.9588 16.4706 23.1054 16.4029C23.1166 16.3917 23.1392 16.3917 23.1505 16.3804C23.3083 16.3015 23.4774 16.2113 23.6465 16.1323C23.6916 16.1098 23.748 16.0872 23.8044 16.0647C23.9284 16.0083 24.0411 15.952 24.1651 15.8956C24.2215 15.873 24.2892 15.8392 24.3455 15.8167C24.4695 15.7603 24.5823 15.7039 24.7063 15.6588C24.7627 15.6363 24.819 15.6137 24.8754 15.5799C25.0333 15.5123 25.1911 15.4446 25.3489 15.3882C25.3715 15.377 25.394 15.3657 25.4166 15.3544C25.5857 15.2868 25.7435 15.2191 25.9126 15.1515C26.1156 15.0726 26.2621 14.926 26.3411 14.7569C23.872 15.0951 19.4187 15.0049 19.4187 10.0217V18.8494C19.5427 18.748 19.6667 18.6465 19.7907 18.545C19.8584 18.4887 19.9035 18.4548 19.9373 18.421Z" fill="url(#paint8_linear_470_508)"/>
<path opacity="0.32" d="M23.8268 16.0423C23.9283 15.9972 24.0298 15.9408 24.1312 15.8957C22.4063 15.8957 20.4333 15.4673 19.4412 13.7649V18.827C19.5652 18.7255 19.6892 18.6241 19.8132 18.5226C19.8583 18.4888 19.8921 18.455 19.9372 18.4324C20.0274 18.3648 20.1176 18.2971 20.2078 18.2182C20.2529 18.1844 20.298 18.1506 20.3431 18.1167C20.4333 18.0491 20.5235 17.9814 20.625 17.9138C20.6701 17.88 20.7151 17.8574 20.7602 17.8236C20.8955 17.7334 21.0195 17.6432 21.1548 17.553C21.1661 17.553 21.1661 17.5418 21.1774 17.5418C21.324 17.4516 21.4592 17.3614 21.6058 17.2599C21.6509 17.2373 21.696 17.2035 21.7411 17.181C21.8426 17.1133 21.944 17.057 22.0568 16.9893C22.1131 16.9555 22.1695 16.9217 22.2146 16.8991C22.3161 16.8428 22.4288 16.7751 22.5303 16.7187C22.5754 16.6962 22.6318 16.6624 22.6769 16.6398C22.8234 16.5609 22.9587 16.482 23.1053 16.4143C23.1166 16.4031 23.1391 16.4031 23.1504 16.3918C23.3082 16.3129 23.4773 16.2227 23.6464 16.1437C23.7254 16.0874 23.7705 16.0648 23.8268 16.0423Z" fill="url(#paint9_linear_470_508)"/>
<path d="M7.55814 18.827V9.99927C5.83319 11.4649 3.69109 12.6825 1.05293 13.6972C0.399024 13.9452 0.399024 14.8697 1.05293 15.129C3.69109 16.1437 5.83319 17.3613 7.55814 18.827Z" fill="url(#paint10_linear_470_508)"/>
<path d="M7.17474 10.315C7.12964 10.3489 7.09582 10.3827 7.05072 10.4052C6.96053 10.4729 6.87033 10.5405 6.78014 10.6194C6.73504 10.6533 6.68995 10.6871 6.64485 10.7209C6.55466 10.7886 6.45319 10.8562 6.36299 10.9238C6.3179 10.9577 6.2728 10.9802 6.2277 11.014C6.09241 11.1042 5.9684 11.1944 5.83311 11.2846C5.82183 11.2846 5.82183 11.2959 5.81056 11.2959C5.66399 11.3861 5.5287 11.4763 5.38214 11.5777C5.33704 11.6003 5.29194 11.6341 5.24685 11.6567C5.14538 11.7243 5.03264 11.7807 4.93117 11.8483C4.8748 11.8821 4.8297 11.916 4.77333 11.9385C4.67186 11.9949 4.55912 12.0625 4.45765 12.1189C4.41256 12.1415 4.35619 12.1753 4.31109 12.1978C4.16452 12.2767 4.02923 12.3557 3.8714 12.4233C3.86012 12.4346 3.83757 12.4346 3.8263 12.4459C3.66846 12.5248 3.49935 12.615 3.33023 12.6939C3.28514 12.7164 3.22877 12.739 3.18367 12.7615C3.05965 12.8179 2.94691 12.8743 2.82289 12.9306C2.76652 12.9532 2.69888 12.987 2.64251 13.0096C2.51849 13.0659 2.40575 13.1223 2.28173 13.1674C2.22536 13.19 2.16899 13.2125 2.11262 13.2463C1.95478 13.314 1.79694 13.3816 1.6391 13.438C1.61655 13.4493 1.59401 13.4605 1.57146 13.4718C1.40234 13.5395 1.24451 13.6071 1.07539 13.6747C0.872457 13.7537 0.725892 13.9002 0.646973 14.0693C3.11602 13.7311 7.56933 13.8213 7.56933 18.8045V9.97681C7.43404 10.1121 7.31003 10.2136 7.17474 10.315Z" fill="url(#paint11_linear_470_508)"/>
<path opacity="0.32" d="M7.17474 10.315C7.12964 10.3489 7.09582 10.3827 7.05072 10.4052C6.96053 10.4729 6.87033 10.5405 6.78014 10.6194C6.73504 10.6533 6.68995 10.6871 6.64485 10.7209C6.55466 10.7886 6.45319 10.8562 6.36299 10.9238C6.3179 10.9577 6.2728 10.9802 6.2277 11.014C6.09241 11.1042 5.9684 11.1944 5.83311 11.2846C5.82183 11.2846 5.82183 11.2959 5.81056 11.2959C5.66399 11.3861 5.5287 11.4763 5.38214 11.5777C5.33704 11.6003 5.29194 11.6341 5.24685 11.6567C5.14538 11.7243 5.03264 11.7807 4.93117 11.8483C4.8748 11.8821 4.8297 11.916 4.77333 11.9385C4.67186 11.9949 4.55912 12.0625 4.45765 12.1189C4.41256 12.1415 4.35619 12.1753 4.31109 12.1978C4.16452 12.2767 4.02923 12.3557 3.8714 12.4233C3.86012 12.4346 3.83757 12.4346 3.8263 12.4459C3.66846 12.5248 3.49935 12.615 3.33023 12.6939C3.28514 12.7164 3.22877 12.739 3.18367 12.7615C3.05965 12.8179 2.94691 12.8743 2.82289 12.9306C2.76652 12.9532 2.69888 12.987 2.64251 13.0096C2.51849 13.0659 2.40575 13.1223 2.28173 13.1674C2.22536 13.19 2.16899 13.2125 2.11262 13.2463C1.95478 13.314 1.79694 13.3816 1.6391 13.438C1.61655 13.4493 1.59401 13.4605 1.57146 13.4718C1.40234 13.5395 1.24451 13.6071 1.07539 13.6747C0.872457 13.7537 0.725892 13.9002 0.646973 14.0693C3.11602 13.7311 7.56933 13.8213 7.56933 18.8045V9.97681C7.43404 10.1121 7.31003 10.2136 7.17474 10.315Z" fill="url(#paint12_linear_470_508)"/>
<path d="M7.55825 15.0952V10.0105C7.43423 10.112 7.31022 10.2134 7.1862 10.3149C7.14111 10.3487 7.10728 10.3825 7.06219 10.4051C6.97199 10.4727 6.8818 10.5404 6.7916 10.6193C6.74651 10.6531 6.70141 10.687 6.65631 10.7208C6.56612 10.7884 6.46465 10.8561 6.37446 10.9237C6.32936 10.9575 6.28427 10.9801 6.23917 11.0139C6.10388 11.1041 5.97986 11.1943 5.84457 11.2845C5.8333 11.2845 5.8333 11.2958 5.82202 11.2958C5.67546 11.386 5.54017 11.4761 5.3936 11.5776C5.34851 11.6002 5.30341 11.634 5.25831 11.6565C5.15684 11.7242 5.0441 11.7805 4.94264 11.8482C4.88626 11.882 4.84117 11.9158 4.7848 11.9384C4.68333 11.9948 4.57059 12.0624 4.46912 12.1188C4.42402 12.1413 4.36765 12.1751 4.32255 12.1977C4.17599 12.2766 4.0407 12.3555 3.88286 12.4232C3.87159 12.4345 3.84904 12.4345 3.83776 12.4457C3.74757 12.4908 3.6461 12.5359 3.55591 12.5923C5.15685 12.7501 6.7916 13.3702 7.55825 15.0952Z" fill="url(#paint13_linear_470_508)"/>
<defs fill="#000000">
<linearGradient id="paint0_linear_470_508" x1="13.4034" y1="9.60692" x2="13.4034" y2="0.645505" gradientUnits="userSpaceOnUse" fill="#000000">
<stop offset="0.000294" stop-color="#c2c2c2" fill="#000000"/>
<stop offset="1" stop-color="#d1d1d1" fill="#000000"/>
</linearGradient>
<linearGradient id="paint1_linear_470_508" x1="21.585" y1="15.6986" x2="24.0828" y2="9.4062" gradientUnits="userSpaceOnUse" fill="#000000">
<stop offset="0.000294" stop-color="#c2c2c2" fill="#000000"/>
<stop offset="1" stop-color="#d1d1d1" fill="#000000"/>
</linearGradient>
<linearGradient id="paint2_linear_470_508" x1="10.1516" y1="11.9493" x2="16.6548" y2="11.9493" gradientUnits="userSpaceOnUse" fill="#000000">
<stop stop-color="#ffffff" fill="#000000"/>
<stop offset="1" stop-color="#ffffff" fill="#000000"/>
</linearGradient>
<linearGradient id="paint3_linear_470_508" x1="12.1756" y1="13.2456" x2="16.655" y2="13.2456" gradientUnits="userSpaceOnUse" fill="#000000">
<stop stop-color="#d1d1d1" fill="#000000"/>
<stop offset="0.9994" stop-color="#c2c2c2" stop-opacity="0" fill="#000000"/>
</linearGradient>
<linearGradient id="paint4_linear_470_508" x1="13.5948" y1="19.5382" x2="13.5948" y2="28.4996" gradientUnits="userSpaceOnUse" fill="#000000">
<stop offset="0.000294" stop-color="#c2c2c2" fill="#000000"/>
<stop offset="1" stop-color="#d1d1d1" fill="#000000"/>
</linearGradient>
<linearGradient id="paint5_linear_470_508" x1="16.8463" y1="16.8997" x2="10.3432" y2="16.8997" gradientUnits="userSpaceOnUse" fill="#000000">
<stop stop-color="#ffffff" fill="#000000"/>
<stop offset="1" stop-color="#ffffff" fill="#000000"/>
</linearGradient>
<linearGradient id="paint6_linear_470_508" x1="16.8463" y1="16.8997" x2="10.3432" y2="16.8997" gradientUnits="userSpaceOnUse" fill="#000000">
<stop stop-color="#ffffff" fill="#000000"/>
<stop offset="1" stop-color="#ffffff" fill="#000000"/>
</linearGradient>
<linearGradient id="paint7_linear_470_508" x1="10.3432" y1="15.2426" x2="14.5973" y2="15.2426" gradientUnits="userSpaceOnUse" fill="#000000">
<stop stop-color="#d1d1d1" fill="#000000"/>
<stop offset="0.9994" stop-color="#c2c2c2" stop-opacity="0" fill="#000000"/>
</linearGradient>
<linearGradient id="paint8_linear_470_508" x1="19.4439" y1="14.4142" x2="26.3686" y2="14.4142" gradientUnits="userSpaceOnUse" fill="#000000">
<stop stop-color="#ffffff" fill="#000000"/>
<stop offset="1" stop-color="#ffffff" fill="#000000"/>
</linearGradient>
<linearGradient id="paint9_linear_470_508" x1="19.4438" y1="16.295" x2="24.1292" y2="16.295" gradientUnits="userSpaceOnUse" fill="#000000">
<stop stop-color="#d1d1d1" fill="#000000"/>
<stop offset="0.9994" stop-color="#c2c2c2" stop-opacity="0" fill="#000000"/>
</linearGradient>
<linearGradient id="paint10_linear_470_508" x1="2.79125" y1="18.6789" x2="5.75881" y2="13.6112" gradientUnits="userSpaceOnUse" fill="#000000">
<stop stop-color="#d1d1d1" fill="#000000"/>
<stop offset="0.9997" stop-color="#c2c2c2" fill="#000000"/>
</linearGradient>
<linearGradient id="paint11_linear_470_508" x1="0.630659" y1="14.4144" x2="7.55538" y2="14.4144" gradientUnits="userSpaceOnUse" fill="#000000">
<stop stop-color="#ffffff" fill="#000000"/>
<stop offset="1" stop-color="#ffffff" fill="#000000"/>
</linearGradient>
<linearGradient id="paint12_linear_470_508" x1="0.630659" y1="14.4144" x2="7.55538" y2="14.4144" gradientUnits="userSpaceOnUse" fill="#000000">
<stop stop-color="#d1d1d1" fill="#000000"/>
<stop offset="0.9994" stop-color="#c2c2c2" stop-opacity="0" fill="#000000"/>
</linearGradient>
<linearGradient id="paint13_linear_470_508" x1="3.54144" y1="12.5466" x2="7.55557" y2="12.5466" gradientUnits="userSpaceOnUse" fill="#000000">
<stop stop-color="#ffffff" fill="#000000"/>
<stop offset="1" stop-color="#ffffff" fill="#000000"/>
</linearGradient>
</defs>
</svg>