<svg width="120" height="120" viewBox="0 0 120 120" fill="none" xmlns="http://www.w3.org/2000/svg">
<mask id="mask0_275_12501" style="mask-type:luminance" maskUnits="userSpaceOnUse" x="0" y="0" width="120" height="120">
<path d="M0 0H120V120H0V0Z" fill="white"/>
</mask>
<g mask="url(#mask0_275_12501)">
<g opacity="0.999994">
<path d="M44.0786 2.6692C75.7854 -6.13636 108.525 12.3708 117.33 44.0776C126.136 75.7844 107.629 108.524 75.9218 117.329C44.215 126.135 11.4757 107.628 2.67016 75.9209C-6.13541 44.2141 12.3718 11.4748 44.0786 2.6692Z" fill="url(#paint0_linear_275_12501)" fill-opacity="0.4"/>
<path d="M44.0786 2.6692C75.7854 -6.13636 108.525 12.3708 117.33 44.0776C126.136 75.7844 107.629 108.524 75.9218 117.329C44.215 126.135 11.4757 107.628 2.67016 75.9209C-6.13541 44.2141 12.3718 11.4748 44.0786 2.6692Z" stroke="url(#paint1_linear_275_12501)"/>
</g>
<path d="M47.2898 14.2318C72.6153 7.19843 98.7348 21.9635 105.768 47.289C112.802 72.6146 98.0365 98.734 72.7109 105.767C47.3853 112.801 21.2659 98.0358 14.2325 72.7102C7.19916 47.3846 21.9642 21.2652 47.2898 14.2318Z" fill="url(#paint2_linear_275_12501)" fill-opacity="0.6"/>
<path d="M47.2898 14.2318C72.6154 7.19843 98.7348 21.9635 105.768 47.289C112.802 72.6146 98.0365 98.734 72.7109 105.767C47.3853 112.801 21.2659 98.0358 14.2325 72.7102C7.19916 47.3846 21.9642 21.2652 47.2898 14.2318Z" stroke="url(#paint3_linear_275_12501)"/>
<path d="M50.5008 25.7945C69.4451 20.5333 88.9445 31.5561 94.2057 50.5004C99.4669 69.4447 88.4441 88.9441 69.4998 94.2053C50.5555 99.4665 31.0561 88.4437 25.7949 69.4994C20.5337 50.5551 31.5565 31.0557 50.5008 25.7945Z" fill="url(#paint4_radial_275_12501)"/>
<path d="M71.9434 64.5283C71.9434 62.997 71.6418 61.4806 71.0557 60.0658C70.4697 58.651 69.6108 57.3655 68.5279 56.2827L63.4906 51.2453L64.1979 50.5379C64.7394 49.9965 65.1688 49.3537 65.4618 48.6464C65.7548 47.939 65.9057 47.1808 65.9057 46.4151L64.0943 46.4151L63.3346 44.8956C63.2 44.6265 62.9932 44.4001 62.7373 44.242C62.4813 44.0838 62.1864 44 61.8855 44C61.634 44 61.386 44.0586 61.161 44.171C60.936 44.2835 60.7404 44.4468 60.5894 44.648L60.0113 45.4189C59.8094 45.6881 59.5121 45.8697 59.1805 45.9265C58.8488 45.9834 58.508 45.911 58.2281 45.7244L57.4528 45.2075L56.6481 45.4758C56.355 45.5735 56.1 45.7609 55.9194 46.0116C55.7387 46.2623 55.6415 46.5634 55.6415 46.8724C55.6415 47.6845 55.8015 48.4887 56.1123 49.239C56.423 49.9893 56.8786 50.671 57.4528 51.2453L52.4155 56.2827C51.3326 57.3655 50.4737 58.651 49.8876 60.0658C49.3016 61.4806 49 62.9969 49 64.5283C49 67.5708 50.2086 70.4887 52.36 72.64C54.5113 74.7914 57.4292 76 60.4717 76C61.9782 76 63.4699 75.7033 64.8617 75.1268C66.2535 74.5503 67.5182 73.7053 68.5834 72.64C69.6487 71.5748 70.4937 70.3101 71.0702 68.9183C71.6467 67.5265 71.9434 66.0348 71.9434 64.5283Z" fill="url(#paint5_radial_275_12501)"/>
<path opacity="0.2" d="M62.8866 50.6415L58.0564 50.6415C57.8963 50.6415 57.7427 50.7051 57.6295 50.8183C57.5162 50.9316 57.4526 51.0851 57.4526 51.2453C57.4526 51.4054 57.5162 51.559 57.6295 51.6722C57.7427 51.7854 57.8963 51.849 58.0564 51.849L59.0138 51.849L58.9406 51.9222C58.3745 52.4884 58.0564 53.2563 58.0564 54.0569L58.0564 55.4717L59.264 55.4717L59.264 54.0569C59.264 53.819 59.3108 53.5835 59.4018 53.3637C59.4929 53.144 59.6263 52.9443 59.7945 52.7761L60.4715 52.0991L61.1485 52.7761C61.3172 52.9439 61.451 53.1435 61.5421 53.3634C61.6331 53.5832 61.6797 53.819 61.6791 54.0569L61.6791 55.4717L62.8866 55.4717L62.8866 54.0569C62.8866 53.2562 62.5685 52.4884 62.0024 51.9222L61.9292 51.849L62.8866 51.849C63.0467 51.849 63.2003 51.7854 63.3135 51.6722C63.4268 51.559 63.4904 51.4054 63.4904 51.2453C63.4904 51.0851 63.4268 50.9316 63.3135 50.8183C63.2003 50.7051 63.0467 50.6415 62.8866 50.6415Z" fill="#111111"/>
<path opacity="0.4" d="M60.4718 71.7736C64.4733 71.7736 67.7171 68.5298 67.7171 64.5284C67.7171 60.5269 64.4733 57.2831 60.4718 57.2831C56.4704 57.2831 53.2266 60.5269 53.2266 64.5284C53.2266 68.5298 56.4704 71.7736 60.4718 71.7736Z" fill="#111111"/>
<path opacity="0.5" d="M57.4526 62.717L57.4526 66.3396L60.4715 68.1509L63.4904 66.3396L63.4903 62.7169L60.4715 60.9056L57.4526 62.717Z" fill="#111111"/>
<path d="M50.5008 25.7945C69.4451 20.5333 88.9445 31.5561 94.2057 50.5004C99.4669 69.4447 88.4441 88.9441 69.4998 94.2053C50.5555 99.4665 31.0561 88.4437 25.7949 69.4994C20.5337 50.5551 31.5565 31.0557 50.5008 25.7945Z" stroke="url(#paint6_linear_275_12501)"/>
</g>
<defs>
<linearGradient id="paint0_linear_275_12501" x1="76.0556" y1="117.811" x2="43.9448" y2="2.18744" gradientUnits="userSpaceOnUse">
<stop stop-color="white" stop-opacity="0.3"/>
<stop offset="0.5" stop-color="#808080" stop-opacity="0.15"/>
<stop offset="1" stop-opacity="0"/>
</linearGradient>
<linearGradient id="paint1_linear_275_12501" x1="76.0556" y1="117.811" x2="43.9448" y2="2.18744" gradientUnits="userSpaceOnUse">
<stop stop-color="white" stop-opacity="0.3"/>
<stop offset="0.5" stop-color="white" stop-opacity="0.15"/>
<stop offset="1" stop-color="white" stop-opacity="0"/>
</linearGradient>
<linearGradient id="paint2_linear_275_12501" x1="72.8447" y1="106.249" x2="47.156" y2="13.75" gradientUnits="userSpaceOnUse">
<stop stop-color="white" stop-opacity="0.3"/>
<stop offset="0.5" stop-color="#808080" stop-opacity="0.15"/>
<stop offset="1" stop-opacity="0"/>
</linearGradient>
<linearGradient id="paint3_linear_275_12501" x1="72.8447" y1="106.249" x2="47.156" y2="13.75" gradientUnits="userSpaceOnUse">
<stop stop-color="white" stop-opacity="0.3"/>
<stop offset="0.5" stop-color="white" stop-opacity="0.15"/>
<stop offset="1" stop-color="white" stop-opacity="0"/>
</linearGradient>
<radialGradient id="paint4_radial_275_12501" cx="0" cy="0" r="1" gradientUnits="userSpaceOnUse" gradientTransform="translate(47.9375 16.5644) rotate(-15.521) scale(90.1587)">
<stop offset="0.35" stop-color="#101010"/>
<stop offset="0.68" stop-color="#2C1243"/>
<stop offset="1" stop-color="#9333EA"/>
</radialGradient>
<radialGradient id="paint5_radial_275_12501" cx="0" cy="0" r="1" gradientUnits="userSpaceOnUse" gradientTransform="translate(-1.66667 14.8571) rotate(38.5384) scale(77.9062 95.2574)">
<stop offset="0.35" stop-color="#101010"/>
<stop offset="0.68" stop-color="#2C1243"/>
<stop offset="0.91027" stop-color="#9333EA"/>
</radialGradient>
<linearGradient id="paint6_linear_275_12501" x1="69.6336" y1="94.6871" x2="50.367" y2="25.3127" gradientUnits="userSpaceOnUse">
<stop stop-color="white" stop-opacity="0.3"/>
<stop offset="0.5" stop-color="white" stop-opacity="0.15"/>
<stop offset="1" stop-color="white" stop-opacity="0"/>
</linearGradient>
</defs>
</svg>
