<svg width="120" height="120" viewBox="0 0 120 120" fill="none" xmlns="http://www.w3.org/2000/svg">
<mask id="mask0_275_12341" style="mask-type:luminance" maskUnits="userSpaceOnUse" x="0" y="0" width="120" height="120">
<path d="M0 0H120V120H0V0Z" fill="white"/>
</mask>
<g mask="url(#mask0_275_12341)">
<g opacity="0.999994">
<path d="M44.0786 2.6692C75.7854 -6.13636 108.525 12.3708 117.33 44.0776C126.136 75.7844 107.629 108.524 75.9218 117.329C44.215 126.135 11.4757 107.628 2.67016 75.9209C-6.13541 44.2141 12.3718 11.4748 44.0786 2.6692Z" fill="url(#paint0_linear_275_12341)" fill-opacity="0.4"/>
<path d="M44.0786 2.6692C75.7854 -6.13636 108.525 12.3708 117.33 44.0776C126.136 75.7844 107.629 108.524 75.9218 117.329C44.215 126.135 11.4757 107.628 2.67016 75.9209C-6.13541 44.2141 12.3718 11.4748 44.0786 2.6692Z" stroke="url(#paint1_linear_275_12341)"/>
</g>
<path d="M47.2898 14.2318C72.6153 7.19843 98.7348 21.9635 105.768 47.289C112.802 72.6146 98.0365 98.734 72.7109 105.767C47.3853 112.801 21.2659 98.0358 14.2325 72.7102C7.19916 47.3846 21.9642 21.2652 47.2898 14.2318Z" fill="url(#paint2_linear_275_12341)" fill-opacity="0.6"/>
<path d="M47.2898 14.2318C72.6154 7.19843 98.7348 21.9635 105.768 47.289C112.802 72.6146 98.0365 98.734 72.7109 105.767C47.3853 112.801 21.2659 98.0358 14.2325 72.7102C7.19916 47.3846 21.9642 21.2652 47.2898 14.2318Z" stroke="url(#paint3_linear_275_12341)"/>
<path d="M50.5008 25.7945C69.4451 20.5333 88.9445 31.5561 94.2057 50.5004C99.4669 69.4447 88.4441 88.9441 69.4998 94.2053C50.5555 99.4665 31.0561 88.4437 25.7949 69.4994C20.5337 50.5551 31.5565 31.0557 50.5008 25.7945Z" fill="url(#paint4_radial_275_12341)"/>
<path d="M64.8839 75.6949C64.4562 75.4169 64.1561 74.9807 64.0492 74.4819C63.9423 73.9831 64.0374 73.4622 64.3136 73.0333C64.5899 72.6044 65.0248 72.3025 65.5231 72.1935C66.0215 72.0845 66.5428 72.1774 66.9728 72.4518C67.4005 72.7299 67.7007 73.166 67.8075 73.6649C67.9144 74.1637 67.8193 74.6845 67.5431 75.1134C67.2669 75.5423 66.832 75.8443 66.3336 75.9533C65.8352 76.0623 65.314 75.9694 64.8839 75.6949ZM58.4677 72.4518C58.0376 72.1761 57.5158 72.0823 57.0166 72.1909C56.5174 72.2995 56.0817 72.6017 55.8051 73.0312C55.5285 73.4606 55.4336 73.9823 55.5411 74.4817C55.6487 74.9811 55.9499 75.4174 56.3788 75.6949C56.8089 75.9707 57.3307 76.0645 57.8299 75.9559C58.3291 75.8473 58.7648 75.5451 59.0414 75.1156C59.318 74.6861 59.413 74.1645 59.3054 73.6651C59.1979 73.1657 58.8966 72.7294 58.4677 72.4518ZM67.0079 67.3116C67.1674 67.3103 67.3232 67.2642 67.4577 67.1785C67.5921 67.0928 67.6997 66.971 67.7682 66.827L72.7559 55.9494C72.8119 55.8222 72.8355 55.6831 72.8245 55.5446C72.8135 55.4061 72.7683 55.2724 72.693 55.1557C72.6176 55.0389 72.5144 54.9427 72.3927 54.8756C72.271 54.8085 72.1346 54.7727 71.9956 54.7714C66.9096 54.7716 58.7751 54.7713 53.6836 54.7714L53.6836 49.8009C53.6832 49.3579 53.507 48.9332 53.1938 48.6199C52.8805 48.3067 52.4558 48.1305 52.0127 48.13L47.8355 48.13C47.6139 48.13 47.4014 48.2181 47.2447 48.3747C47.088 48.5314 47 48.7439 47 48.9655C47 49.1871 47.088 49.3996 47.2447 49.5562C47.4014 49.7129 47.6139 49.8009 47.8355 49.8009L52.0127 49.8009C52.0129 53.4113 52.0107 62.7831 52.0115 66.5095C52.0113 66.5147 52.0142 68.1749 52.0127 68.181C52.0138 69.067 52.3662 69.9164 52.9927 70.5429C53.6191 71.1694 54.4686 71.5218 55.3546 71.5228L68.635 71.5228C68.8537 71.5184 69.0619 71.4285 69.215 71.2723C69.3681 71.1161 69.4539 70.9061 69.4539 70.6873C69.4538 70.4686 69.3681 70.2586 69.215 70.1024C69.0619 69.9462 68.8536 69.8563 68.6349 69.8519L55.3546 69.8519C54.9116 69.8515 54.4868 69.6753 54.1736 69.362C53.8603 69.0488 53.6841 68.624 53.6837 68.181L53.6837 67.343L67.0079 67.3116ZM57.3813 53.9359L65.8322 53.9359C65.8736 53.9359 65.9146 53.9278 65.9528 53.9119C65.9911 53.8961 66.0258 53.8729 66.0551 53.8436C66.0844 53.8143 66.1076 53.7796 66.1235 53.7413C66.1393 53.7031 66.1475 53.6621 66.1475 53.6206L66.1475 51.6873C66.1475 51.6339 66.1339 51.5815 66.1081 51.5348C66.0823 51.4881 66.0451 51.4488 66 51.4204L61.7705 48.7614C61.7202 48.7298 61.662 48.713 61.6026 48.7131C61.5432 48.7131 61.485 48.7299 61.4347 48.7616L57.2133 51.4203C57.1682 51.4487 57.131 51.4881 57.1053 51.5348C57.0795 51.5814 57.066 51.6338 57.066 51.6871L57.066 53.6206C57.066 53.7043 57.0993 53.7845 57.1584 53.8436C57.2175 53.9027 57.2977 53.9359 57.3813 53.9359ZM65.7688 49.6701L68.6385 51.2637C68.6871 51.2907 68.7418 51.3048 68.7974 51.3048C68.853 51.3048 68.9077 51.2907 68.9563 51.2637L71.8259 49.6701C71.877 49.6418 71.9195 49.6003 71.9491 49.55C71.9788 49.4996 71.9944 49.4423 71.9944 49.3839L71.9944 45.8692C71.9944 45.81 71.9783 45.752 71.948 45.7012C71.9176 45.6504 71.8741 45.6088 71.822 45.5808L68.9523 44.039C68.9047 44.0134 68.8515 44 68.7974 44C68.7433 44 68.6901 44.0134 68.6424 44.039L65.7728 45.5808C65.7207 45.6088 65.6771 45.6504 65.6467 45.7012C65.6164 45.752 65.6004 45.81 65.6004 45.8692L65.6004 49.3839C65.6004 49.4423 65.616 49.4996 65.6456 49.55C65.6752 49.6003 65.7177 49.6417 65.7688 49.6701Z" fill="url(#paint5_radial_275_12341)"/>
<path d="M50.5008 25.7945C69.4451 20.5333 88.9445 31.5561 94.2057 50.5004C99.4669 69.4447 88.4441 88.9441 69.4998 94.2053C50.5555 99.4665 31.0561 88.4437 25.7949 69.4994C20.5337 50.5551 31.5565 31.0557 50.5008 25.7945Z" stroke="url(#paint6_linear_275_12341)"/>
</g>
<defs>
<linearGradient id="paint0_linear_275_12341" x1="76.0556" y1="117.811" x2="43.9448" y2="2.18744" gradientUnits="userSpaceOnUse">
<stop stop-color="white" stop-opacity="0.3"/>
<stop offset="0.5" stop-color="#808080" stop-opacity="0.15"/>
<stop offset="1" stop-opacity="0"/>
</linearGradient>
<linearGradient id="paint1_linear_275_12341" x1="76.0556" y1="117.811" x2="43.9448" y2="2.18744" gradientUnits="userSpaceOnUse">
<stop stop-color="white" stop-opacity="0.3"/>
<stop offset="0.5" stop-color="white" stop-opacity="0.15"/>
<stop offset="1" stop-color="white" stop-opacity="0"/>
</linearGradient>
<linearGradient id="paint2_linear_275_12341" x1="72.8447" y1="106.249" x2="47.156" y2="13.75" gradientUnits="userSpaceOnUse">
<stop stop-color="white" stop-opacity="0.3"/>
<stop offset="0.5" stop-color="#808080" stop-opacity="0.15"/>
<stop offset="1" stop-opacity="0"/>
</linearGradient>
<linearGradient id="paint3_linear_275_12341" x1="72.8447" y1="106.249" x2="47.156" y2="13.75" gradientUnits="userSpaceOnUse">
<stop stop-color="white" stop-opacity="0.3"/>
<stop offset="0.5" stop-color="white" stop-opacity="0.15"/>
<stop offset="1" stop-color="white" stop-opacity="0"/>
</linearGradient>
<radialGradient id="paint4_radial_275_12341" cx="0" cy="0" r="1" gradientUnits="userSpaceOnUse" gradientTransform="translate(47.9375 16.5644) rotate(-15.521) scale(90.1587)">
<stop offset="0.35" stop-color="#101010"/>
<stop offset="0.68" stop-color="#2C1243"/>
<stop offset="1" stop-color="#9333EA"/>
</radialGradient>
<radialGradient id="paint5_radial_275_12341" cx="0" cy="0" r="1" gradientUnits="userSpaceOnUse" gradientTransform="translate(-10.0349 14.8571) rotate(35.2831) scale(84.0327 99.4124)">
<stop offset="0.35" stop-color="#101010"/>
<stop offset="0.68" stop-color="#2C1243"/>
<stop offset="0.91027" stop-color="#9333EA"/>
</radialGradient>
<linearGradient id="paint6_linear_275_12341" x1="69.6336" y1="94.6871" x2="50.367" y2="25.3127" gradientUnits="userSpaceOnUse">
<stop stop-color="white" stop-opacity="0.3"/>
<stop offset="0.5" stop-color="white" stop-opacity="0.15"/>
<stop offset="1" stop-color="white" stop-opacity="0"/>
</linearGradient>
</defs>
</svg>
