<svg xmlns="http://www.w3.org/2000/svg" viewBox="0 0 245 263" fill="none">
  <path d="M149.523 197.153L149.523 94.8937L149.523 94.8807C149.438 81.7965 144.197 69.2756 134.94 60.0478C130.469 55.5906 125.236 52.0763 119.549 49.6325L197.499 49.6326L197.512 49.6325C209.536 49.5532 221.04 44.7093 229.513 36.1596C237.985 27.6101 242.74 16.0491 242.739 3.99995L242.739 2H240.739L47.2403 1.99996L47.2271 2.00004C35.2031 2.07934 23.6995 6.9232 15.2267 15.4729C6.75398 24.0225 1.99974 35.5835 2 47.6326L2.00004 49.6325H4H98.1021V214.229C98.0315 220.423 99.22 226.567 101.595 232.286C103.972 238.009 107.487 243.187 111.927 247.504C116.366 251.82 121.637 255.185 127.417 257.392C133.163 259.586 139.292 260.591 145.436 260.346C157.387 261.136 169.236 257.681 178.9 250.586L183.064 247.53L177.928 246.985C171.266 246.278 166.26 244.757 162.47 242.515C158.711 240.291 156.052 237.301 154.151 233.477C150.269 225.67 149.535 214.42 149.535 199.153V197.153H149.523Z" fill="#0E0E0E" fill-opacity="0.8" stroke="url(#paint0_linear_289_5485)" stroke-width="4"/>
  <defs>
    <linearGradient id="paint0_linear_289_5485" x1="145.945" y1="350.031" x2="129.962" y2="-246.023" gradientUnits="userSpaceOnUse">
      <stop stop-color="#FFCEAE" stop-opacity="0.97"/>
      <stop offset="0.22" stop-color="#F0A675" stop-opacity="0.785"/>
      <stop offset="0.45" stop-color="#D87839" stop-opacity="0.6"/>
      <stop offset="0.73" stop-color="#B9652D" stop-opacity="0.3"/>
      <stop offset="1" stop-color="#903900" stop-opacity="0"/>
    </linearGradient>
  </defs>
</svg>