<?xml version="1.0" standalone="no"?>
<!DOCTYPE svg PUBLIC "-//W3C//DTD SVG 20010904//EN"
 "http://www.w3.org/TR/2001/REC-SVG-20010904/DTD/svg10.dtd">
<svg version="1.0" xmlns="http://www.w3.org/2000/svg"
 width="683.000000pt" height="583.000000pt" viewBox="0 0 683.000000 583.000000"
 preserveAspectRatio="xMidYMid meet">

<g transform="translate(0.000000,583.000000) scale(0.100000,-0.100000)"
fill="#000000" stroke="none">
<path d="M3165 5424 c-348 -52 -595 -158 -852 -367 -45 -37 -89 -67 -98 -67
-49 0 -194 -47 -290 -95 -230 -114 -403 -301 -503 -545 -16 -41 -32 -86 -34
-100 -3 -24 -1 -25 77 -31 44 -4 94 -9 110 -13 29 -7 31 -6 54 56 51 137 175
296 295 378 27 18 47 29 44 24 -2 -5 -25 -52 -50 -104 -56 -115 -82 -190 -113
-329 -43 -194 -47 -268 -42 -916 4 -657 5 -669 63 -897 68 -270 195 -530 373
-763 117 -155 343 -362 516 -475 77 -50 287 -159 370 -192 38 -15 17 -16 -367
-17 l-408 -1 0 -110 0 -110 1475 0 1475 0 0 110 0 110 -180 0 -180 0 0 1488
c0 952 -4 1519 -10 1577 -24 206 -70 374 -143 525 -22 47 -43 89 -45 94 -3 5
10 0 28 -10 53 -31 158 -132 205 -198 44 -62 115 -199 115 -223 0 -25 24 -24
122 2 l100 28 -6 31 c-12 61 -115 251 -179 332 -147 184 -355 314 -582 364
-72 15 -92 24 -132 60 -69 61 -242 174 -343 225 -212 106 -418 156 -670 160
-91 2 -178 1 -195 -1z m457 -264 c125 -26 251 -71 362 -128 l89 -45 -76 -22
c-269 -78 -501 -269 -632 -520 l-34 -65 -32 62 c-122 241 -332 422 -592 509
l-108 36 55 32 c130 73 328 138 491 160 109 15 364 5 477 -19z m-992 -419
c214 -72 375 -212 478 -418 67 -132 75 -179 79 -485 l5 -278 138 0 138 0 5
268 c5 285 12 333 63 455 79 187 220 334 405 421 99 47 175 66 290 73 l96 6
53 -64 c303 -363 363 -829 160 -1244 -171 -351 -507 -600 -931 -692 -120 -26
-439 -25 -558 1 -279 60 -507 182 -696 371 -231 231 -347 504 -348 815 -1 285
90 525 292 768 l36 43 100 -4 c77 -4 121 -12 195 -36z m-582 -1573 c253 -350
677 -584 1132 -627 56 -5 106 -13 110 -18 4 -4 17 -37 30 -73 114 -325 395
-637 722 -801 168 -85 338 -138 505 -159 48 -6 98 -13 111 -16 22 -4 22 -5 22
-204 l0 -200 -474 0 c-369 0 -501 3 -593 15 -223 29 -427 94 -622 196 -587
308 -956 874 -1001 1534 -10 138 -14 435 -6 435 2 0 31 -37 64 -82z m2632
-693 l0 -775 -24 0 c-43 0 -190 29 -281 55 -266 77 -541 270 -695 486 -55 78
-150 261 -150 289 0 14 13 19 60 24 139 16 382 97 520 173 193 107 410 297
514 451 27 39 51 72 53 72 2 0 3 -349 3 -775z"/>
<path d="M2535 4211 c-212 -52 -257 -337 -70 -446 59 -35 137 -43 203 -21 61
21 135 95 151 152 38 136 -33 270 -163 309 -53 16 -74 17 -121 6z m99 -182
c53 -41 23 -129 -44 -129 -34 0 -80 38 -80 65 0 22 27 72 42 78 27 11 56 6 82
-14z"/>
<path d="M4000 4205 c-127 -41 -196 -175 -159 -310 15 -57 100 -137 162 -154
204 -58 381 152 287 339 -53 105 -180 160 -290 125z m119 -172 c54 -45 24
-133 -45 -133 -71 0 -103 86 -48 129 33 26 65 27 93 4z"/>
</g>
</svg>
